<svg xmlns="http://www.w3.org/2000/svg" viewBox="0 0 1367 1058.64"><defs><style>.cls-1{fill:#c7d353;}.cls-2{fill:#e1f75c;}.cls-3{fill:#ede694;}.cls-4{fill:#c4b20a;}.cls-5{fill:#efe529;}.cls-6{fill:#8e148b;}.cls-7{fill:#bc13b0;}.cls-8{fill:#db71d8;}.cls-9{fill:#aa5caa;}.cls-10{fill:#2803ff;}.cls-11{fill:#4a38f9;}.cls-12{fill:#4835fc;}.cls-13{fill:#050372;}.cls-14{fill:#1202ad;}.cls-15{fill:#a2ea5e;}.cls-16{fill:#76dd1b;}.cls-17{fill:#72fc06;}.cls-18{fill:#539b13;}.cls-19{fill:#5aba06;}.cls-20{fill:#35302d;}.cls-21{fill:#606060;}.cls-22{fill:#110f0e;}.cls-23{fill:#383838;}.cls-24{fill:#515151;}.cls-25{fill:#1e1e1e;}.cls-26,.cls-27,.cls-28,.cls-33,.cls-34,.cls-36,.cls-37,.cls-38,.cls-46,.cls-47,.cls-48,.cls-49,.cls-51,.cls-52,.cls-64,.cls-69,.cls-70,.cls-71,.cls-75,.cls-87,.cls-96{fill:none;}.cls-26{stroke:#828281;}.cls-26,.cls-27,.cls-28,.cls-34,.cls-38,.cls-46,.cls-47,.cls-48,.cls-49,.cls-51,.cls-52,.cls-64,.cls-69,.cls-70,.cls-71,.cls-75,.cls-78,.cls-87,.cls-96{stroke-linecap:round;}.cls-26,.cls-28,.cls-33,.cls-37,.cls-46,.cls-47,.cls-48,.cls-49,.cls-51,.cls-52,.cls-64,.cls-69,.cls-70,.cls-71,.cls-78,.cls-87,.cls-96{stroke-miterlimit:10;}.cls-26,.cls-27,.cls-49{stroke-width:16px;}.cls-27{stroke:#727272;}.cls-27,.cls-34,.cls-36,.cls-38,.cls-75{stroke-linejoin:round;}.cls-28,.cls-36,.cls-37{stroke:#1e1e1e;}.cls-28,.cls-34{stroke-width:3px;}.cls-29{fill:#0b0c0c;}.cls-30{fill:#828281;}.cls-31{fill:#c7c6c4;}.cls-32{fill:#303031;}.cls-33{stroke:#bcbbb8;}.cls-33,.cls-51,.cls-69,.cls-96{stroke-width:10px;}.cls-34{stroke:#c7c6c4;}.cls-35{fill:#f39300;}.cls-36,.cls-37,.cls-38,.cls-47,.cls-64{stroke-width:4px;}.cls-38{stroke:#191810;}.cls-39{fill:#0e0f0e;}.cls-40{fill:#edbf5a;}.cls-41{fill:#f8ebd4;}.cls-42{fill:#262626;}.cls-43{fill:#191e19;}.cls-44{fill:#117011;}.cls-45{fill:#0d2b0d;}.cls-46,.cls-47,.cls-48{stroke:#0e0f0e;}.cls-46,.cls-52,.cls-70{stroke-width:12px;}.cls-48{stroke-width:14px;}.cls-49{stroke:#957560;}.cls-50{fill:#56534f;}.cls-51{stroke:#938f8a;}.cls-52{stroke:#5b5b5b;}.cls-53{fill:#46ae60;}.cls-54{fill:#44353a;}.cls-55{fill:#766558;}.cls-56{fill:#93796b;}.cls-57{fill:#174c22;}.cls-58{fill:#aa16db;}.cls-59{fill:#99c358;}.cls-60{fill:#4c2d18;}.cls-61{fill:#eadbc1;}.cls-62{fill:#bebebf;}.cls-63{fill:#7a7a7a;}.cls-64{stroke:#766558;}.cls-65{fill:#0b2310;}.cls-66{fill:#ffb88a;}.cls-67{fill:#c1330c;}.cls-68{fill:#0a0401;}.cls-69,.cls-70{stroke:#23191d;}.cls-71{stroke:#0a0401;stroke-width:22px;}.cls-72{fill:#de9172;}.cls-73{fill:#f4f3f2;}.cls-74{fill:#161108;}.cls-75,.cls-78{stroke:#282012;stroke-width:2px;}.cls-76{fill:#ede9e4;}.cls-77{fill:#282012;}.cls-78{fill:#bcbbb8;}.cls-79{fill:#e5f2f9;}.cls-80{fill:#0a0e0c;}.cls-81{fill:#b7b7b7;}.cls-82{fill:#42353a;}.cls-83{fill:#f5ba91;}.cls-84{fill:#c99a7b;}.cls-85{fill:#56414a;}.cls-86{fill:#e08f36;}.cls-87{stroke:#42353a;stroke-width:15px;}.cls-88{fill:#5c3e6a;}.cls-89{fill:#e5b045;}.cls-90{fill:#cc9b7a;}.cls-91{fill:#e8e8e8;}.cls-92{fill:#493c56;}.cls-93{fill:#ecefe8;}.cls-94{fill:#594837;}.cls-95{fill:#ce6e20;}.cls-96{stroke:#4c4335;}</style></defs><g id="Calque_5" data-name="Calque 5"><circle class="cls-1" cx="507" cy="138" r="49"/><circle class="cls-2" cx="507" cy="138" r="33"/><rect class="cls-3" x="504" y="26" width="5" height="87" rx="2.5"/><rect class="cls-4" x="504" y="164" width="5" height="27" rx="2.5"/><rect class="cls-4" x="504" y="197" width="5" height="38" rx="2.5"/><rect class="cls-5" x="869.5" y="111.5" width="5" height="82" rx="2.5" transform="translate(422.5 1009.5) rotate(-90)"/><rect class="cls-5" x="731" y="107" width="5" height="91" rx="2.5" transform="translate(284 871) rotate(-90)"/><rect class="cls-3" x="504" y="123" width="5" height="27" rx="2.5"/><rect class="cls-3" x="801.85" y="139" width="5" height="27.26" rx="2.5" transform="translate(354.72 941.98) rotate(-90)"/><rect class="cls-5" x="766.84" y="53.41" width="5" height="43.4" rx="2.5" transform="translate(-256.66 317.17) rotate(-25)"/><rect class="cls-5" x="860.61" y="57.41" width="5" height="27.1" rx="2.5" transform="translate(-49.46 -553.2) rotate(40)"/><rect class="cls-3" x="834.63" y="77.65" width="5" height="50.95" rx="2.5" transform="translate(-34.86 -528.97) rotate(40)"/><rect class="cls-4" x="741.8" y="75.22" width="5" height="43.4" rx="2.5" transform="translate(-147.53 539.69) rotate(-45)"/><rect class="cls-3" x="738.8" y="106.22" width="5" height="43.4" rx="2.5" transform="translate(-37.13 690.95) rotate(-60)"/><rect class="cls-3" x="777.99" y="117.76" width="5" height="27.1" rx="2.5" transform="translate(-140.71 602.91) rotate(-47.49)"/><rect class="cls-3" x="826.17" y="167.78" width="5" height="27.1" rx="2.5" transform="translate(-161.96 654.65) rotate(-47.49)"/><rect class="cls-5" x="860.6" y="193.41" width="5" height="43.4" rx="2.5" transform="translate(-196.31 658.31) rotate(-45)"/><rect class="cls-5" x="777.1" y="157.15" width="5" height="39.26" rx="2.5" transform="translate(-0.97 -474.76) rotate(40)"/><rect class="cls-4" x="750.02" y="196.69" width="5" height="18.76" rx="2.5" transform="translate(11.51 -450.5) rotate(40)"/><rect class="cls-3" x="777.92" y="175.24" width="5" height="49.7" rx="2.5" transform="translate(-68.61 -401.73) rotate(32.37)"/><rect class="cls-4" x="815.24" y="89.74" width="5" height="41.27" rx="2.5" transform="translate(-266.09 -153.17) rotate(9.84)"/><rect class="cls-5" x="838.39" y="82.98" width="5" height="68.03" rx="2.5" transform="translate(32.02 -575.33) rotate(45)"/><rect class="cls-3" x="849.84" y="120.14" width="5" height="27.1" rx="2.5" transform="translate(336.02 -715.73) rotate(66.36)"/><rect class="cls-4" x="881.78" y="107.38" width="5" height="27.1" rx="2.5" transform="translate(343.46 -752.63) rotate(66.36)"/><circle class="cls-3" cx="604" cy="98" r="3"/><rect class="cls-3" x="819.61" y="179.94" width="5" height="43.4" rx="2.5" transform="translate(-308.86 331.6) rotate(-23.64)"/><rect class="cls-4" x="822" y="63" width="12" height="12" transform="translate(-27.93 -560.77) rotate(42.96)"/><rect class="cls-3" x="828.44" y="228.86" width="12" height="12" transform="translate(86.83 -520.68) rotate(42.96)"/><circle class="cls-6" cx="923.56" cy="266.22" r="47.85"/><circle class="cls-7" cx="923.56" cy="266.22" r="32.23"/><rect class="cls-8" x="920.63" y="156.84" width="4.88" height="84.96" rx="2.44"/><rect class="cls-9" x="920.63" y="291.61" width="4.88" height="26.37" rx="2.44"/><rect class="cls-9" x="920.63" y="323.83" width="4.88" height="37.11" rx="2.44"/><rect class="cls-8" x="1284.52" y="240.69" width="4.88" height="80.08" rx="2.44" transform="translate(709.23 1552.69) rotate(-90)"/><rect class="cls-8" x="1149.27" y="236.3" width="4.88" height="88.87" rx="2.44" transform="translate(573.98 1417.44) rotate(-90)"/><rect class="cls-8" x="920.63" y="251.57" width="4.88" height="26.37" rx="2.44"/><rect class="cls-8" x="1218.46" y="267.54" width="4.88" height="26.62" rx="2.44" transform="translate(643.04 1486.75) rotate(-90)"/><rect class="cls-8" x="1184.26" y="183.96" width="4.88" height="42.38" rx="2.44" transform="translate(-272.51 505.74) rotate(-25)"/><rect class="cls-8" x="1275.84" y="187.86" width="4.88" height="26.46" rx="2.44" transform="translate(131.32 -789.61) rotate(40)"/><rect class="cls-9" x="1250.47" y="207.63" width="4.88" height="49.75" rx="2.44" transform="translate(145.58 -765.96) rotate(40)"/><rect class="cls-8" x="1159.82" y="205.26" width="4.88" height="42.38" rx="2.44" transform="translate(-116.71 873.17) rotate(-45)"/><rect class="cls-9" x="1156.89" y="235.53" width="4.88" height="42.38" rx="2.44" transform="translate(60.34 1117.37) rotate(-60)"/><rect class="cls-9" x="1195.16" y="246.81" width="4.88" height="26.46" rx="2.44" transform="translate(-100.35 952.12) rotate(-47.49)"/><rect class="cls-8" x="1242.2" y="295.65" width="4.88" height="26.46" rx="2.44" transform="translate(-121.09 1002.64) rotate(-47.49)"/><rect class="cls-8" x="1275.83" y="320.68" width="4.88" height="42.38" rx="2.44" transform="translate(-164.34 989.01) rotate(-45)"/><rect class="cls-8" x="1194.28" y="285.27" width="4.88" height="38.34" rx="2.44" transform="translate(178.67 -713.01) rotate(40)"/><rect class="cls-8" x="1167.84" y="323.88" width="4.88" height="18.32" rx="2.44" transform="translate(190.87 -689.33) rotate(40)"/><rect class="cls-8" x="1195.09" y="302.93" width="4.88" height="48.54" rx="2.44" transform="translate(64.26 -605.3) rotate(32.37)"/><rect class="cls-9" x="1231.53" y="219.44" width="4.88" height="40.3" rx="2.44" transform="translate(-237.88 -222.42) rotate(9.84)"/><rect class="cls-8" x="1254.14" y="212.84" width="4.88" height="66.44" rx="2.44" transform="translate(245.03 -831.47) rotate(45)"/><rect class="cls-9" x="1265.32" y="249.13" width="4.88" height="26.46" rx="2.44" transform="matrix(0.4, 0.92, -0.92, 0.4, 702.72, -1019.21)"/><rect class="cls-8" x="1296.51" y="236.67" width="4.88" height="26.46" rx="2.44" transform="translate(709.99 -1055.25) rotate(66.36)"/><circle class="cls-9" cx="1018.28" cy="227.15" r="2.93"/><rect class="cls-9" x="1235.8" y="307.53" width="4.88" height="42.38" rx="2.44" transform="translate(-324.9 509.13) rotate(-23.64)"/><rect class="cls-8" x="1238.13" y="193.33" width="11.72" height="11.72" transform="translate(172.35 -809.35) rotate(42.96)"/><rect class="cls-9" x="1244.42" y="355.3" width="11.72" height="11.72" transform="translate(284.42 -770.2) rotate(42.96)"/><rect class="cls-9" x="1144.7" y="291.64" width="4.88" height="49.75" rx="2.44" transform="translate(680.08 -876.27) rotate(66.36)"/><rect class="cls-9" x="1285.89" y="299.94" width="4.88" height="26.46" rx="2.44" transform="translate(37.07 1218.64) rotate(-57.63)"/><rect class="cls-3" x="726.27" y="163.69" width="5" height="50.95" rx="2.5" transform="translate(312.81 -569.3) rotate(66.36)"/><rect class="cls-3" x="865.7" y="167.64" width="5" height="27.1" rx="2.5" transform="translate(-19.81 827.48) rotate(-60)"/><circle class="cls-10" cx="303.02" cy="322.9" r="50.79"/><circle class="cls-11" cx="303.02" cy="322.9" r="34.21"/><rect class="cls-12" x="299.91" y="206.81" width="5.18" height="90.18" rx="2.5"/><rect class="cls-12" x="299.91" y="349.85" width="5.18" height="27.99" rx="2.5"/><rect class="cls-13" x="299.91" y="384.06" width="5.18" height="39.39" rx="2.5"/><rect class="cls-13" x="667.91" y="294.89" width="5.18" height="85" rx="2.5" transform="translate(36.12 992.89) rotate(-90)"/><rect class="cls-12" x="524.35" y="290.22" width="5.18" height="94.32" rx="2.5" transform="translate(-107.44 849.33) rotate(-90)"/><rect class="cls-14" x="299.91" y="307.36" width="5.18" height="27.99" rx="2.5"/><rect class="cls-14" x="597.79" y="323.39" width="5.18" height="28.25" rx="2.5" transform="translate(-34.14 922.9) rotate(-90)"/><rect class="cls-14" x="561.49" y="234.67" width="5.18" height="44.98" rx="2.5" transform="translate(-352.83 247.49) rotate(-25)"/><rect class="cls-14" x="658.69" y="238.82" width="5.18" height="28.09" rx="2.5" transform="translate(20.25 -380.91) rotate(40)"/><rect class="cls-12" x="631.77" y="259.8" width="5.18" height="52.81" rx="2.5" transform="translate(35.38 -355.8) rotate(40)"/><rect class="cls-14" x="535.55" y="257.28" width="5.18" height="44.98" rx="2.5" transform="translate(-337.21 447.47) rotate(-45)"/><rect class="cls-13" x="532.44" y="289.41" width="5.18" height="44.98" rx="2.5" transform="matrix(0.5, -0.87, 0.87, 0.5, -299.6, 604.3)"/><rect class="cls-13" x="573.06" y="301.38" width="5.18" height="28.09" rx="2.5" transform="matrix(0.68, -0.74, 0.74, 0.68, -342.85, 511.62)"/><rect class="cls-13" x="623" y="353.22" width="5.18" height="28.09" rx="2.5" transform="translate(-364.87 565.24) rotate(-47.49)"/><rect class="cls-12" x="658.69" y="379.79" width="5.18" height="44.98" rx="2.5" transform="translate(-387.77 570.42) rotate(-45)"/><rect class="cls-13" x="572.13" y="342.21" width="5.18" height="40.69" rx="2.5" transform="translate(70.51 -299.6) rotate(40)"/><rect class="cls-13" x="544.07" y="383.19" width="5.18" height="19.44" rx="2.5" transform="translate(83.45 -274.46) rotate(40)"/><rect class="cls-14" x="572.99" y="360.95" width="5.18" height="51.52" rx="2.5" transform="translate(-0.52 -263.06) rotate(32.37)"/><rect class="cls-13" x="611.66" y="272.33" width="5.18" height="42.77" rx="2.5" transform="translate(-237.75 -115.68) rotate(9.84)"/><rect class="cls-12" x="635.67" y="265.33" width="5.18" height="70.52" rx="2.5" transform="translate(102.49 -378.28) rotate(45)"/><rect class="cls-13" x="647.53" y="303.85" width="5.18" height="28.09" rx="2.5" transform="translate(383.63 -420.15) rotate(66.36)"/><rect class="cls-13" x="680.64" y="290.62" width="5.18" height="28.09" rx="2.5" transform="translate(391.34 -458.4) rotate(66.36)"/><circle class="cls-13" cx="388.53" cy="321.6" r="5.62"/><rect class="cls-13" x="616.19" y="365.83" width="5.18" height="44.98" rx="2.5" transform="translate(-400.79 265.73) rotate(-23.64)"/><rect class="cls-13" x="618.68" y="244.61" width="12.44" height="12.44" transform="translate(41.52 -373.59) rotate(42.96)"/><rect class="cls-14" x="625.35" y="416.54" width="12.44" height="12.44" transform="translate(160.47 -332.03) rotate(42.96)"/><rect class="cls-12" x="519.5" y="348.97" width="5.18" height="52.81" rx="2.5" transform="translate(359.59 -268.43) rotate(66.36)"/><rect class="cls-14" x="669.36" y="357.78" width="5.18" height="28.09" rx="2.5" transform="translate(-298.84 725.29) rotate(-57.63)"/><circle class="cls-15" cx="796.05" cy="112.7" r="28.3"/><circle class="cls-16" cx="796.05" cy="112.7" r="19.06"/><rect class="cls-17" x="794.31" y="48.02" width="2.89" height="50.25" rx="1.44"/><rect class="cls-18" x="794.31" y="127.72" width="2.89" height="15.59" rx="1.44"/><rect class="cls-18" x="794.31" y="146.78" width="2.89" height="21.95" rx="1.44"/><rect class="cls-17" x="1130.88" y="103.74" width="2.89" height="47.36" rx="1.44" transform="translate(707.9 1244.74) rotate(-90)"/><rect class="cls-17" x="1050.88" y="101.14" width="2.89" height="52.56" rx="1.44" transform="translate(627.91 1164.74) rotate(-90)"/><rect class="cls-19" x="794.31" y="104.04" width="2.89" height="15.59" rx="1.44"/><rect class="cls-19" x="1091.8" y="119.62" width="2.89" height="15.74" rx="1.44" transform="translate(668.76 1205.74) rotate(-90)"/><rect class="cls-17" x="1071.58" y="70.18" width="2.89" height="25.06" rx="1.44" transform="translate(-231.42 446.23) rotate(-25)"/><rect class="cls-18" x="1125.74" y="72.49" width="2.89" height="15.65" rx="1.44" transform="translate(18.34 -720.75) rotate(40)"/><rect class="cls-17" x="1110.74" y="84.18" width="2.89" height="29.42" rx="1.44" transform="translate(26.77 -706.76) rotate(40)"/><rect class="cls-19" x="1057.12" y="82.78" width="2.89" height="25.06" rx="1.44" transform="translate(-54.35 761.44) rotate(-45)"/><rect class="cls-17" x="1055.39" y="100.69" width="2.89" height="25.06" rx="1.44" transform="translate(133.37 956.85) rotate(-60)"/><rect class="cls-18" x="1078.02" y="107.35" width="2.89" height="15.65" rx="1.44" transform="translate(-31.87 818.07) rotate(-47.49)"/><rect class="cls-19" x="1105.85" y="136.24" width="2.89" height="15.65" rx="1.44" transform="translate(-44.14 847.95) rotate(-47.49)"/><rect class="cls-17" x="1125.74" y="151.04" width="2.89" height="25.06" rx="1.44" transform="translate(-82.52 829.95) rotate(-45)"/><rect class="cls-18" x="1077.51" y="130.1" width="2.89" height="22.67" rx="1.44" transform="translate(46.34 -675.45) rotate(40)"/><rect class="cls-19" x="1061.87" y="152.94" width="2.89" height="10.83" rx="1.44" transform="translate(53.56 -661.44) rotate(40)"/><rect class="cls-17" x="1077.98" y="140.55" width="2.89" height="28.71" rx="1.44" transform="translate(-46.33 -568.84) rotate(32.37)"/><rect class="cls-18" x="1099.54" y="91.17" width="2.89" height="23.83" rx="1.44" transform="translate(-263.17 -201.69) rotate(9.84)"/><rect class="cls-18" x="1112.91" y="87.26" width="2.89" height="39.29" rx="1.44" transform="translate(104.98 -771.65) rotate(45)"/><rect class="cls-17" x="1119.52" y="108.73" width="2.89" height="15.65" rx="1.44" transform="translate(481.22 -972.07) rotate(66.36)"/><rect class="cls-19" x="1137.97" y="101.36" width="2.89" height="15.65" rx="1.44" transform="translate(485.52 -993.39) rotate(66.36)"/><circle class="cls-3" cx="852.07" cy="89.6" r="1.73"/><rect class="cls-18" x="1102.06" y="143.27" width="2.89" height="25.06" rx="1.44" transform="translate(-266.86 440.59) rotate(-23.64)"/><rect class="cls-19" x="1103.44" y="75.72" width="6.93" height="6.93" transform="translate(53.81 -748.11) rotate(42.96)"/><rect class="cls-17" x="1107.16" y="171.52" width="6.93" height="6.93" transform="translate(120.09 -724.95) rotate(42.96)"/><rect class="cls-18" x="1048.15" y="133.88" width="2.89" height="29.42" rx="1.44" transform="translate(467.82 -887.5) rotate(66.36)"/><rect class="cls-18" x="1128.68" y="136.16" width="2.89" height="15.65" rx="1.44" transform="translate(143.37 1035.71) rotate(-60)"/></g><g id="Calque_4" data-name="Calque 4"><polygon class="cls-20" points="15 876.64 700 1058.64 1367 840.64 1331 826.64 42 776 15 876.64"/><polygon class="cls-21" points="0.5 785.14 645.5 572.14 1349.5 766.14 709.5 979.14 0.5 785.14"/><polygon class="cls-22" points="0 785.64 0 845.64 713 1034.64 1350 823.64 1349 765.64 709 979.64 0 785.64"/><path class="cls-23" d="M627.5,667.59s-11.41,0-11.94,8,0,74.74,0,74.74-1.95,7.78,8.78,8.26,563-1.95,563-1.95,9.2,3.53,8.47-9.89,0-71.47,0-71.47,1.47-7.74-13.89-7.74Z" transform="translate(-297 -15)"/><polygon class="cls-24" points="330.5 410.29 330.5 652.6 885.01 652.6 885.01 410.29 848.72 410.29 806.49 331.08 797.55 331.29 761.84 393.14 726.91 331.5 718.76 331.71 675.74 409.02 656.12 408.71 330.5 410.29"/><path class="cls-25" d="M662.84,274.34H1150l51.5,139.32s4.26,11.63-5.26,11.63H1146L1104,346.08H1095l-35.71,61.85-34.92-61.64h-8.16l-43,77.31-19.62-.26L617,424.87s-11,1.26-4.94-17.26,43.65-127.86,43.65-127.86S655.85,275.7,662.84,274.34Z" transform="translate(-297 -15)"/><line class="cls-26" x1="867.55" y1="587.53" x2="867.55" y2="652.59"/><polygon class="cls-24" points="505.96 297.31 507.9 163.67 565.65 111.33 618.93 159.51 631.66 174.5 631.66 333.08 503.12 330.5 505.96 297.31"/><polygon class="cls-24" points="483.03 350.33 483.03 652.6 653.7 652.6 653.7 342.6 569.91 213.16 483.03 350.33"/><polyline class="cls-27" points="478.87 340.28 567.02 228.1 660.9 342.6"/><polyline class="cls-26" points="495.7 518.84 569.91 456.1 640.66 518.84"/><line class="cls-26" x1="514.22" y1="510.38" x2="514.22" y2="546.35"/><line class="cls-26" x1="624.46" y1="510.38" x2="624.46" y2="546.35"/><line class="cls-26" x1="514.22" y1="563.81" x2="514.22" y2="570.12"/><line class="cls-26" x1="624.46" y1="563.81" x2="624.46" y2="570.12"/><line class="cls-26" x1="514.22" y1="584.27" x2="514.22" y2="652.59"/><line class="cls-26" x1="624.46" y1="584.27" x2="624.46" y2="652.59"/><line class="cls-26" x1="656.64" y1="566.97" x2="885.02" y2="566.97"/><line class="cls-26" x1="660.91" y1="587.53" x2="660.91" y2="652.59"/><line class="cls-26" x1="703.46" y1="585.9" x2="703.46" y2="650.91"/><line class="cls-26" x1="785.14" y1="587.53" x2="785.14" y2="652.59"/><line class="cls-26" x1="826.37" y1="587.53" x2="826.37" y2="652.59"/><line class="cls-26" x1="759.26" y1="591.22" x2="729.33" y2="648.91"/><path class="cls-25" d="M789.76,185.77l42.44,3.84,33.35-40.77s-.32-13.09,6.15-2.94,31.14,43.71,31.14,43.71l44.13,6.1L930.4,161.62,906.1,42.39V18.88s-6.63-8.73-8.94,0V42H835V21.67a5.25,5.25,0,0,0-9.78.21v23l-21.62,119Z" transform="translate(-297 -15)"/><polyline class="cls-27" points="489.55 179.13 535.67 179.13 568.55 133.79 602.95 180.65 644.55 180.65"/><polygon class="cls-24" points="722.34 259.34 722.34 213.16 730.28 202.11 730.28 182.55 767.36 182.55 767.36 203.38 776.09 213.16 776.09 259.34 722.34 259.34"/><line class="cls-28" x1="725.23" y1="174.19" x2="773.2" y2="174.19"/><path class="cls-29" d="M846.24,525.38H886.9a3.37,3.37,0,0,0,2-6L868.6,504a3.44,3.44,0,0,0-4.05,0l-20.3,15.31a3.37,3.37,0,0,0,2,6Z" transform="translate(-297 -15)"/><path class="cls-29" d="M859.76,543.36h10.78a29.77,29.77,0,0,1,29.77,29.77V666H830.05V573.13A29.77,29.77,0,0,1,859.76,543.36Z" transform="translate(-297 -15)"/><rect class="cls-30" x="473.88" y="652.59" width="189.08" height="22.3" rx="5.94"/><rect class="cls-31" x="461.88" y="674.84" width="214.8" height="22.3" rx="6.15"/><rect class="cls-30" x="450" y="697.14" width="238.63" height="22.3" rx="6"/><rect class="cls-31" x="437.06" y="719.39" width="262.61" height="22.3" rx="6.36"/><polygon class="cls-32" points="357.43 699.88 382.73 674.84 408.18 698.14 408.18 738.43 357.43 739.48 357.43 699.88"/><path class="cls-33" d="M656.9,753.43V717.82s4.63-21,23.56-25.51c0,0,21.51,5.74,22.67,23.83v37.29Z" transform="translate(-297 -15)"/><polygon class="cls-32" points="731.01 698.62 756.31 673.58 781.77 696.88 781.77 737.17 731.01 738.22 731.01 698.62"/><path class="cls-33" d="M1030.33,752.17V716.61s4.63-21,23.56-25.56c0,0,21.51,5.74,22.67,23.83v37.29Z" transform="translate(-297 -15)"/><polygon class="cls-32" points="816.75 698.62 842.1 673.58 867.5 696.88 867.5 737.17 816.75 738.22 816.75 698.62"/><path class="cls-33" d="M1116,752.17V716.61s4.57-21,23.51-25.56c0,0,21.51,5.74,22.67,23.83v37.29Z" transform="translate(-297 -15)"/><path class="cls-34" d="M677,390.05" transform="translate(-297 -15)"/><polygon class="cls-30" points="379.99 375.15 442.79 375.15 442.79 337.76 410.71 303.94 379.99 339.55 379.99 375.15"/><polyline class="cls-27" points="442.79 334.81 410.39 299.36 378.57 334.81"/><polyline class="cls-27" points="683.31 410.29 722.34 339.7 761.89 407.76 801.13 339.7 840.41 410.29"/><polygon class="cls-35" points="707.24 408.92 707.24 460.94 738.06 460.94 738.06 408.92 723.28 393.25 707.24 408.92"/><polygon class="cls-36" points="708.4 460.41 708.4 408.81 722.44 393.77 737.12 408.81 737.12 460.41 708.4 460.41"/><polyline class="cls-37" points="712.45 405.92 722.76 416.02 732.8 405.92"/><line class="cls-37" x1="722.76" y1="459.15" x2="722.76" y2="413.76"/><polygon class="cls-35" points="523.68 346.59 523.68 427.96 565.92 427.96 565.92 346.59 545.72 322.08 523.68 346.59"/><polygon class="cls-36" points="525.26 427.12 525.26 346.44 544.56 322.93 564.6 346.44 564.6 427.12 525.26 427.12"/><polyline class="cls-37" points="530.84 341.91 544.93 357.69 558.71 341.91"/><line class="cls-37" x1="544.93" y1="425.17" x2="544.93" y2="354.17"/><line class="cls-37" x1="562.71" y1="375.05" x2="526.52" y2="375.05"/><line class="cls-37" x1="561.45" y1="401.56" x2="525.26" y2="401.56"/><polygon class="cls-35" points="580.28 346.59 580.28 427.96 622.51 427.96 622.51 346.59 602.31 322.08 580.28 346.59"/><polygon class="cls-36" points="581.85 427.12 581.85 346.44 601.16 322.93 621.2 346.44 621.2 427.12 581.85 427.12"/><polyline class="cls-37" points="587.43 341.91 601.52 357.69 615.3 341.91"/><line class="cls-37" x1="601.52" y1="425.17" x2="601.52" y2="354.17"/><line class="cls-37" x1="619.3" y1="375.05" x2="583.12" y2="375.05"/><line class="cls-37" x1="618.04" y1="401.56" x2="581.85" y2="401.56"/><polygon class="cls-35" points="400.29 339.55 410.65 325.29 421.12 338.55 421.12 361.48 400.29 362.06 400.29 339.55"/><path class="cls-37" d="M698.19,376.48V356.23s1.89-11.94,9.68-14.52a15.33,15.33,0,0,1,9.31,13.52v21Z" transform="translate(-297 -15)"/><rect class="cls-35" x="387.93" y="457.94" width="46.49" height="75.84"/><line class="cls-37" x1="411.18" y1="457.94" x2="411.18" y2="533.78"/><line class="cls-37" x1="387.93" y1="482.97" x2="434.43" y2="482.97"/><line class="cls-37" x1="387.93" y1="508.06" x2="434.43" y2="508.06"/><rect class="cls-38" x="387.93" y="457.94" width="46.49" height="75.84"/><polygon class="cls-35" points="787.77 408.92 787.77 460.94 818.59 460.94 818.59 408.92 803.81 393.25 787.77 408.92"/><polygon class="cls-36" points="788.92 460.41 788.92 408.81 802.97 393.77 817.64 408.81 817.64 460.41 788.92 460.41"/><polyline class="cls-37" points="792.97 405.92 803.28 416.02 813.33 405.92"/><line class="cls-37" x1="803.28" y1="459.15" x2="803.28" y2="413.76"/><path class="cls-39" d="M1312.2,627a28.68,28.68,0,0,1-11-23.11c0-15.66,4.26-22.37,4.26-22.37l25.59-31.31s8.53-8.94,17.67,0,25.59,31.31,25.59,31.31,6.09,6.71,5.48,20.88-11,24.6-11,24.6v1.49h5.48L1411.52,674v8.2s-1.22,11.18-7.31,12.67-25.59,1.49-25.59,1.49l-.61,96.91h-48.75v9.69h-53.61V791.74H1297v-9h4.27V688.12l-24.37,42.49s-3,4.48-8.53,0V671.72s27.41-38,32.9-41a19.64,19.64,0,0,1,11-2.23Z" transform="translate(-297 -15)"/><polygon class="cls-40" points="1068.82 707.41 1095.63 707.41 1095.63 748.41 1069.43 748.41 1068.82 707.41"/><path class="cls-41" d="M1320.13,594.94s0-20.87,18.27-20.87,20.72,20.87,20.72,20.87v16.4s-.61,6.71-4.88,6.71h-3.65v9h-5.48v-3h-3v3h-4.87v-3h-3v3h-4.88v-9H1325s-5.48,0-5.48-6.71S1320.13,594.94,1320.13,594.94Z" transform="translate(-297 -15)"/><rect class="cls-42" x="1038.97" y="597.83" width="2.44" height="7.45"/><rect class="cls-42" x="1043.84" y="597.83" width="2.44" height="7.45"/><path class="cls-43" d="M1334.75,611.34h-7.31a3.75,3.75,0,0,1-2.44-3.73v-3.72s.61-3.73,3.66-3.73,8.53,4.47,8.53,5.22v4.47S1337.19,611.34,1334.75,611.34Z" transform="translate(-297 -15)"/><path class="cls-43" d="M1344.56,611.44h7.26a3.76,3.76,0,0,0,2.42-3.73V604s-.6-3.73-3.63-3.73-8.48,4.48-8.48,5.22V610S1342.13,611.44,1344.56,611.44Z" transform="translate(-297 -15)"/><path class="cls-41" d="M1388.36,671.72v17.89s-1.21,4.48-3.65,0v-8.2h-2.44v8.2s-1.83,4.48-4.26,0v-8.2h-2.44v8.2s-1.22,3.73-4.27,0V671.72s1.83-3.73,4.27,0v1.49H1378v-1.49s1.82-3,4.26,0v1.49h2.44v-1.49S1386.54,668.74,1388.36,671.72Z" transform="translate(-297 -15)"/><path class="cls-44" d="M1365.21,714.21h3V691.85s.61-8.2,11.57-8.2,11.58,8.2,11.58,8.2v22.36h3V691.85s.61-11.18-14.63-11.18-14.62,11.18-14.62,11.18Z" transform="translate(-297 -15)"/><path class="cls-45" d="M1368.26,714.21v-5.64s.61-4.05,7.92-4.05v-.74s0-3,1.22-3v-3.72s2.43-3,4.26,0v3.72s1.22,0,1.22,2.24v1.49s8.53-1.35,8.53,4.54v5.15Z" transform="translate(-297 -15)"/><line class="cls-46" x1="1066.99" y1="703.69" x2="1097.46" y2="703.69"/><path class="cls-47" d="M1365.82,758.94l.61-34.29s7.31-.75,12.8,8.94v25.35" transform="translate(-297 -15)"/><path class="cls-47" d="M1393.24,758.94l-.58-34.29s-7-.75-12.22,8.94v25.35" transform="translate(-297 -15)"/><line class="cls-48" x1="1066.99" y1="749.16" x2="1096.85" y2="749.16"/><line class="cls-49" x1="986.57" y1="500.18" x2="986.57" y2="781.21"/><path class="cls-50" d="M1272,529.34v17.15s-.61,6,9.75,2.23S1322,534.56,1322,534.56s9.75-2.24,18.28,0,25.59,10.44,28,17.89,6.7-3.73,6.7-3.73-14.62-40.25-43.26-41c-1.22,0-7.92-1.49-13.4,0s-43.87,15.66-43.87,15.66S1271.38,524.12,1272,529.34Z" transform="translate(-297 -15)"/><line class="cls-51" x1="998.15" y1="511.36" x2="1019.47" y2="503.91"/><line class="cls-48" x1="1001.19" y1="770.03" x2="1024.95" y2="770.03"/><path class="cls-41" d="M1276.26,676.19h14.62s3.66,1.5,0,4.48h-6.7v3h6.7s3.66,2.24,0,5.22h-6.7v3h6.7s3,1.49,0,5.22h-14.62s-3-2.24,0-5.22h1.22v-3h-1.22s-2.44-2.24,0-5.22h1.22v-3h-1.22S1273.82,678.43,1276.26,676.19Z" transform="translate(-297 -15)"/><line class="cls-52" x1="1051.15" y1="655.98" x2="1051.15" y2="665.67"/><line class="cls-52" x1="1051.15" y1="698.47" x2="1051.76" y2="752.88"/><line class="cls-52" x1="1035.31" y1="702.19" x2="1035.31" y2="708.16"/><line class="cls-52" x1="1035.31" y1="726.05" x2="1035.31" y2="748.41"/><path class="cls-53" d="M1079.14,731.24v38.15s-5.2,1.73-5.2,5.2v6.94l6.07,7.8V798s.86,3.46,4.33,3.46h27.75s6.07-6.93,0-12.14h-7.8l-8.67-11.27V728.63Z" transform="translate(-297 -15)"/><path class="cls-53" d="M1127.7,801.47h26s5.21,0,5.21-4.33V790.2l6.07-7.8s3.47-11.28-8.67-14.74l-26.89-42.49-14.74,7.8,28.62,45.09-8.67,10.41h-6.94s-4.34,1.73-4.34,6.07S1127.7,801.47,1127.7,801.47Z" transform="translate(-297 -15)"/><path class="cls-54" d="M1076.54,687V732.1a1.7,1.7,0,0,0,1.73,1.74h17.35a2.55,2.55,0,0,1,2.6,2.6v4.33s2.6,1.74,3.47,0V700h10.4v40.75s1.74,2.61,3.47,0v-3.46s4.34-5.21,8.67,0v4.33s2.6,2.6,4.34,0v-7.8h8.67V674.08l-39-11.35Z" transform="translate(-297 -15)"/><path class="cls-55" d="M1088.68,591.62s-10.41-5.2-25.15,20.82v16.47l19.08,13Z" transform="translate(-297 -15)"/><path class="cls-55" d="M1128.61,641.66l-6.06-50.29s10.38-5.2,25.09,20.81" transform="translate(-297 -15)"/><path class="cls-56" d="M1090.41,591.62s-14.74-4.33-13.87,20,0,75.44,0,75.44,3.47,2.6,5.2,0v-5.2s4.34-6.94,9.54,0V687s2.6,2.6,5.2,0V672.27s2.6-4.34,6.94,0v6.07h33.82v-46.5l-.87-21.14s-.87-18.21-15.61-18.21S1090.41,591.62,1090.41,591.62Z" transform="translate(-297 -15)"/><path class="cls-57" d="M1095.62,600.3v3.46s9.53,9.54,20.81,0v-6.93l-20.81,1.73Z" transform="translate(-297 -15)"/><path class="cls-58" d="M1111.22,522.42s21-.17,21.32,19.78-26.52,13-26.52,13l-2.6-26Z" transform="translate(-297 -15)"/><path class="cls-59" d="M1075.67,555.2V541.33s5.2-21.68,20.81-21.68h14.74v12.14h2.61v1.74h7.8V537h1.73v5.21h13v13h3.47s5.2,2.61,5.2,7.81-5.2,7.8-5.2,7.8h-3.47v6.94c0,4.34-10.4,22.55-19.94,22.55s-18.21.86-20.81,0-19.95-10.41-19.95-20.82v-7.8h-3.47s-5.2-.87-5.2-7.8a8.88,8.88,0,0,1,6.07-8.68Z" transform="translate(-297 -15)"/><path class="cls-60" d="M1108.62,608.1" transform="translate(-297 -15)"/><path class="cls-53" d="M1075.67,559.54v7.8a4.31,4.31,0,0,1-2.6-4.33C1073.07,559.54,1075.67,559.54,1075.67,559.54Z" transform="translate(-297 -15)"/><path class="cls-53" d="M1136.37,559.55v7.8s2.53-.87,2.53-4.34S1136.37,559.55,1136.37,559.55Z" transform="translate(-297 -15)"/><path class="cls-53" d="M1125.1,575.15v21s11.27-8.16,11.27-17.35V564.17Z" transform="translate(-297 -15)"/><path class="cls-53" d="M1087,574.93l-.07,20.16s-11.27-6.07-11.27-16.55V564Z" transform="translate(-297 -15)"/><circle class="cls-61" cx="823.76" cy="541.07" r="8.67"/><path class="cls-61" d="M1100,556.07a8.67,8.67,0,0,1-17.34,0" transform="translate(-297 -15)"/><path class="cls-62" d="M1095.62,586.42c.86.87,19.07,0,19.07,0a3.76,3.76,0,0,0,1.74-3.47v-4.33s0-6.07-5.21-7.81-10.4-.86-12.14.87a15,15,0,0,0-3.46,4.34C1094.75,577.75,1094.75,585.55,1095.62,586.42Z" transform="translate(-297 -15)"/><path class="cls-63" d="M1104.93,569.87v4.41h5.43v-3.73A23.93,23.93,0,0,0,1104.93,569.87Z" transform="translate(-297 -15)"/><path class="cls-63" d="M1098.69,572.07v2.21h4.73V570S1099.17,570.73,1098.69,572.07Z" transform="translate(-297 -15)"/><path class="cls-63" d="M1095,582.84c.65.11,14.52.11,14.52.11v3.68h-.77v1.53h-1.83v6.93h-4.34v-6.93H1100v9.53h-4.33V586.42S1094.31,582.72,1095,582.84Z" transform="translate(-297 -15)"/><rect class="cls-53" x="1041.79" y="602.47" width="36.42" height="28.72" rx="14.36" transform="translate(-462.81 563.45) rotate(-28.4)"/><rect class="cls-59" x="1059.2" y="592.49" width="11.27" height="17.34" rx="3.17" transform="translate(-319.73 27.17) rotate(-2.24)"/><rect class="cls-53" x="763.93" y="587.9" width="6.94" height="4.34" rx="1.76"/><rect class="cls-59" x="1044.45" y="595.96" width="11.27" height="17.34" rx="3.17" transform="translate(-458.13 624.47) rotate(-31.58)"/><rect class="cls-53" x="1048.3" y="606.02" width="6.94" height="4.34" rx="1.76" transform="matrix(0.85, -0.52, 0.52, 0.85, -459.74, 625.87)"/><rect class="cls-59" x="1034.92" y="606.37" width="11.27" height="17.34" rx="3.17" transform="translate(-460.17 709.93) rotate(-35.8)"/><rect class="cls-53" x="1039.01" y="616.29" width="6.94" height="4.34" rx="1.76" transform="translate(-461.8 711.7) rotate(-35.8)"/><rect class="cls-59" x="1075.05" y="612.05" width="11.27" height="17.34" rx="3.17" transform="translate(1129.36 -591.65) rotate(76.23)"/><rect class="cls-53" x="1073.33" y="619.06" width="6.94" height="4.34" rx="1.76" transform="translate(1126.89 -587.48) rotate(76.23)"/><rect class="cls-53" x="1132.54" y="614.92" width="36.42" height="28.72" rx="14.36" transform="matrix(0.87, 0.5, -0.5, 0.87, 171.81, -506.06)"/><rect class="cls-59" x="842.84" y="591.37" width="11.27" height="17.34" rx="3.17"/><rect class="cls-53" x="844.57" y="601.77" width="6.94" height="4.34" rx="1.76"/><rect class="cls-59" x="1154.96" y="608.54" width="11.27" height="17.34" rx="3.17" transform="translate(362.79 -613.16) rotate(39.6)"/><rect class="cls-53" x="1154.31" y="617.77" width="6.94" height="4.34" rx="1.76" transform="translate(363.88 -610.74) rotate(39.6)"/><rect class="cls-59" x="1164.5" y="619.81" width="11.27" height="17.34" rx="3.17" transform="translate(75.84 -448.84) rotate(24.87)"/><rect class="cls-53" x="1164.64" y="629.67" width="6.94" height="4.34" rx="1.76" transform="translate(77.06 -447.67) rotate(24.87)"/><rect class="cls-59" x="1125.97" y="624.58" width="11.27" height="17.34" rx="3.17" transform="translate(-424.12 929.94) rotate(-43.14)"/><rect class="cls-53" x="1130.49" y="634.22" width="6.94" height="4.34" rx="1.76" transform="translate(-425.63 932.4) rotate(-43.14)"/><line class="cls-64" x1="827.23" y1="639.06" x2="827.23" y2="645.13"/><line class="cls-65" x1="542.81" y1="625.98" x2="542.81" y2="559.42"/><path class="cls-66" d="M638.75,605.09s-10.5-3.23-11.3,1.61,2.42,6.46,2.42,6.46a3.28,3.28,0,0,0-4,2.35v.07c-.8,3.23,2.42,5.66,2.42,5.66a4,4,0,0,0-2.42,4c0,3.23,5.65,5.65,5.65,5.65l21,7.27,8.88-22.61-.81-12.91-15.33-2.42S640.36,595.43,638.75,605.09Z" transform="translate(-297 -15)"/><polygon class="cls-67" points="357.09 589.28 359.51 602.2 411.98 615.92 433.78 598.16 420.86 584.44 399.06 579.6 360.32 581.21 357.09 589.28"/><path class="cls-68" d="M645.21,600.25s3.23-4,7.26-4l-12.11-12.92s42-46,93.64,0l-11.3,12.1s21.8,13.73,21.8,30.68V800.43H679.92v9.68H607.27V796.43h18.56V784.3h4.85l.8-153.38,12.92,2.42s4,1.62,6.46-3.22,4.84-17,4.84-18.57,33.91,8.07,33.91,8.07l30.67-8.88s-3.23-8.88-14.53-9.69-42-5.65-50,8.88Z" transform="translate(-297 -15)"/><line class="cls-69" x1="373.23" y1="617.54" x2="394.22" y2="678.89"/><line class="cls-70" x1="362.18" y1="623.92" x2="370" y2="707.14"/><line class="cls-71" x1="342.56" y1="774.95" x2="319.15" y2="774.95"/><line class="cls-71" x1="322.37" y1="787.06" x2="298.96" y2="787.06"/><path class="cls-72" d="M680.73,596.43l-.07,2.63a12.42,12.42,0,0,1,6.52,8.47c1.62,6.46,7.27-4,7.27-4v-9.69L682.34,593l-1.61,2.26Z" transform="translate(-297 -15)"/><path class="cls-73" d="M671,598.63s12.11-4,16.14,8.88c0,0,8.08-11.3,15.34-9.68v18l-12.91,3.74-18.27-5Z" transform="translate(-297 -15)"/><path class="cls-74" d="M679,524.36H697A16.08,16.08,0,0,1,713,540.43h0v23a24.68,24.68,0,0,1-24.68,24.68h0A25.37,25.37,0,0,1,663,562.74V540.43A16.07,16.07,0,0,1,679,524.36Z" transform="translate(-297 -15)"/><path class="cls-66" d="M663,561.71a1.8,1.8,0,0,0,2.49.63,1.83,1.83,0,0,0,.74-.84V547s10.49-19.38,19.37,0h4.84s8.08-19.38,19.38,0v13.72s.8,2.56,3.23.07c0-.07-.09,15.87-.09,15.87S712.21,597,688,597s-24.69-19.1-24.69-19.1Z" transform="translate(-297 -15)"/><path class="cls-75" d="M691.22,584.91s2.42-.81,4.84-5.65" transform="translate(-297 -15)"/><path class="cls-76" d="M680.66,564a4.87,4.87,0,0,1-9.49-2.21,4.68,4.68,0,0,1,.36-1" transform="translate(-297 -15)"/><path class="cls-76" d="M703.73,560.33c1.36,2.85.51,6.1-1.9,7.25s-5.48-.22-6.84-3.07" transform="translate(-297 -15)"/><rect class="cls-77" x="675.07" y="555.04" width="2.42" height="13.72" rx="1.21" transform="translate(-372.1 1003.53) rotate(-71.01)"/><path class="cls-78" d="M693.14,564.06l10.16-5" transform="translate(-297 -15)"/><path class="cls-66" d="M713,553.55l7.26-.12v11.3s-.1,5.5-7.32,5.17C713,569.57,713,553.55,713,553.55Z" transform="translate(-297 -15)"/><path class="cls-66" d="M662.86,554.23l-7.16-.12v11.32s.1,5.5,7.21,5.17C662.86,570.26,662.86,554.23,662.86,554.23Z" transform="translate(-297 -15)"/><path class="cls-72" d="M663.07,567.43l9.58,7.84L672.26,593s-9.4-4.88-9.35-15.33S663.07,567.43,663.07,567.43Z" transform="translate(-297 -15)"/><path class="cls-72" d="M712.87,567.17,703.62,575l.38,17.71s9.07-4.88,9-15.33S712.87,567.17,712.87,567.17Z" transform="translate(-297 -15)"/><g id="Calque_1" data-name="Calque 1"><path class="cls-79" d="M1480.31,660.88h0a30.18,30.18,0,0,1,30.18,30.18h0v52.78h-60.34V691.06A30.18,30.18,0,0,1,1480.31,660.88Z" transform="translate(-297 -15)"/><path class="cls-79" d="M1450.15,743.84s-.39,10.38,6.33,10.66,7-4.44,7-4.44a6,6,0,0,1,5.89-3.23c4.62,0,5.18,3,5.18,3a5.54,5.54,0,0,0,5.74,4.14,6.23,6.23,0,0,0,6.33-4.33,6.61,6.61,0,0,1,5.55-3c3.59.2,4.79,1.52,5.15,2.43a8.07,8.07,0,0,0,6.83,5.33c4.61.17,6.32-5.33,6.32-5.33v-6.33Z" transform="translate(-297 -15)"/><path class="cls-79" d="M1509.43,701.22l3.58-3.47s4.81-1.86,7.3,1.11a9.38,9.38,0,0,1,2,6.67l-16.68,17.34Z" transform="translate(-297 -15)"/><path class="cls-79" d="M1450.15,699.38l-4.33-2.17s-8.54-1.06-7.21,9.54l16.48,16.12-.88-23.47Z" transform="translate(-297 -15)"/><path class="cls-80" d="M1486.38,694.24a5.22,5.22,0,0,1-10.42,0" transform="translate(-297 -15)"/><circle class="cls-80" cx="1176.94" cy="673.31" r="2.43"/><circle class="cls-80" cx="1190.53" cy="673.31" r="2.43"/></g><g id="Calque_2" data-name="Calque 2"><ellipse class="cls-80" cx="1184.18" cy="749.34" rx="19.09" ry="2.66"/></g></g><g id="Calque_7" data-name="Calque 7"><polygon class="cls-81" points="181.43 530.1 181.43 589.07 245.37 585.57 245.37 525.95 181.43 530.1"/><path class="cls-82" d="M486.65,520.33l9.22-28.23-9.14-16.61s-2.49-3.32,0-5.81,16.61-13.29,16.61-13.29a6.83,6.83,0,0,1,7.48,0c4.15,2.49,13.28,10,13.28,10s.83,5-3.32,5l-7.47-4.16-6.65,5s19.1,14.11,19.93,15.78,10.8,32.38,10.8,32.38Z" transform="translate(-297 -15)"/><path class="cls-83" d="M525.82,765.55l-.06,8.9s9.14-3.32,15.78,1.66V757.84l-10-5Z" transform="translate(-297 -15)"/><path class="cls-83" d="M496.42,765.67l.05,8.9s-9-3.32-15.55,1.67V758l9.82-5Z" transform="translate(-297 -15)"/><path class="cls-82" d="M500.85,583.45h-1.66v4.15H486.73s-10.79,2.49-12.45,11.63,5.81,49,5.81,49v14.95s-14.95,7.48-14.95,34.88-.83,48.17-.83,48.17h88.86s5,.83,5-5.82V693.07s-3.32-24.92-16.61-31.56V591.75l-4.15-3.32s0-1.66-3.32-1.66h-10.8v-3.32H500.85Z" transform="translate(-297 -15)"/><polygon class="cls-84" points="203.85 565.13 203.85 568.45 213.81 573.43 224.61 568.45 224.61 564.29 203.85 565.13"/><path class="cls-83" d="M487.56,548.57H534.9v19.1c0,5-5.81,14.12-14.12,14.12h-19.1c-7.47,0-14.12-7.48-14.12-13.29Z" transform="translate(-297 -15)"/><path class="cls-18" d="M539.05,573.48" transform="translate(-297 -15)"/><path class="cls-85" d="M539.88,619.16l-3.32,1.66s-1.66,1.66,0,5.81,6.64,15.78,6.64,15.78,1.66,5.81,10,5,7.47-10,7.47-10-8.3-28.24-11.62-28.24S539.88,619.16,539.88,619.16Z" transform="translate(-297 -15)"/><path class="cls-84" d="M547.29,609.46l.9,2.22s1.66,4.16,0,5.82l-3.33,3.32s-2.49.83-4.15,0-5-4.15-5-4.15l5.86-7.74Z" transform="translate(-297 -15)"/><path class="cls-85" d="M553.17,746.22V759.5s-10.8,15-20.76,0c0,0-10,15.78-20.76,0,0,0-10,15.78-20.77,0,0,0-10.79,15.78-20.76,0s-3.77-13.28-3.77-13.28Z" transform="translate(-297 -15)"/><path class="cls-82" d="M496.7,774.45s-9.14-3.32-15.78,1.66-7.48,14.12-7.48,14.12L466,797.71h-6.64s-5,3.32,0,6.64h19.93l3.32-3.32v-4.16s1.66-7.47,6.64-8.3h2.49v14.12s2.5,3.32,5,0V786.91S509.15,781.1,496.7,774.45Z" transform="translate(-297 -15)"/><path class="cls-82" d="M526.38,774.45s9.25-3.32,16,1.66,7.56,14.12,7.56,14.12l7.57,7.48h6.72s5,3.32,0,6.64H544L540.68,801v-4.16s-1.69-7.47-6.73-8.3h-2.52v14.12s-2.52,3.32-5,0V786.91S513.78,781.1,526.38,774.45Z" transform="translate(-297 -15)"/><path class="cls-86" d="M463.48,698.05l9.13-13.29s8.31-2.49,5.82,5c0,0,5.81-1.67,5.81,5,0,0,8.31-4.15,5.81,5l-10,12.46s-1.66,1.66-4.15,0-13.29-8.31-13.29-8.31S460.16,702.2,463.48,698.05Z" transform="translate(-297 -15)"/><path class="cls-86" d="M456,707.19l20.76,14.11a29.38,29.38,0,0,1,2.49,19.93l-29.9,47.34s-5.81,2.49-5.81-3.32L446,781.1s-1.66-4.16-5-3.33l-5,5.82s-5,1.66-5-3.32l4.15-5.82a1.71,1.71,0,0,0-2.49-1.66l-2.49,3.32s-5,1.66-5-3.32l2.49-3.32s0-3.32-3.32-1.66l-5.82,8.3s-5,1.66-5.81-3.32l5-7.47s.83-4.15-4.15-4.15l-3.32,3.32s-5.81.83-4.15-4.16l26.57-39.86S443.55,705.52,456,707.19Z" transform="translate(-297 -15)"/><circle class="cls-85" cx="214.65" cy="585.89" r="3.32"/><circle class="cls-85" cx="214.65" cy="599.17" r="3.32"/><line class="cls-87" x1="167.31" y1="526.09" x2="261.15" y2="526.09"/><rect class="cls-88" x="183.92" y="505.33" width="61.45" height="13.29"/><rect class="cls-89" x="203.02" y="502.84" width="22.42" height="18.27"/><rect class="cls-88" x="206.7" y="505.71" width="14.83" height="12.08"/><path class="cls-90" d="M508.32,556v-2.49s3.33-1.66,5.82,0V556s2.49,0,2.49,1.66v2.49s-3.32,3.33-5,3.33-5.82-3.33-5.82-3.33V557.7A3.07,3.07,0,0,1,508.32,556Z" transform="translate(-297 -15)"/><path class="cls-91" d="M506.62,553.73a6.24,6.24,0,0,1-11.35-5.13c1.32-2.92,3.19-1.44,6.33,0S508,550.8,506.62,553.73Z" transform="translate(-297 -15)"/><path class="cls-91" d="M527.82,549.55A6.25,6.25,0,0,1,516.16,554c-1.11-3,1.25-3.24,4.47-4.46S526.7,546.59,527.82,549.55Z" transform="translate(-297 -15)"/><path class="cls-92" d="M502.51,561h1.66s2.49,2.49,7.48,2.49,7.47-2.49,7.47-2.49h1.66v5.81s0,4.15-4.15,4.15h-10.8a3.25,3.25,0,0,1-3.32-3.32Z" transform="translate(-297 -15)"/><path class="cls-93" d="M505.2,561.78v2.57h3.12v-1.28A11.58,11.58,0,0,1,505.2,561.78Z" transform="translate(-297 -15)"/><path class="cls-88" d="M506,571V568.5a1.42,1.42,0,0,1,1.46-1.66h8.31a1.63,1.63,0,0,1,1.66,1.66v2.43Z" transform="translate(-297 -15)"/><circle class="cls-90" cx="230.42" cy="547.69" r="1.66"/><rect class="cls-94" x="528.17" y="506.73" width="10.18" height="207.44" rx="5.09" transform="translate(123.21 -207.19) rotate(33.12)"/><path class="cls-83" d="M511.65,625.8l5.81-8.3a4.68,4.68,0,0,1,5,0c2.49,1.66,11.63,8.3,11.63,8.3a6.1,6.1,0,0,1-.83,5,3.69,3.69,0,0,1-4.15,1.66s2.49,2.5-.84,5.82-5.81,0-5.81,0,4.15,3.32,1.66,6.64-7.47,0-7.47,0l-8.31-5.81-6.64-1.66,5.81-10Z" transform="translate(-297 -15)"/><path class="cls-83" d="M535.73,617.5s4.15,2.49,6.64-.83,10-14.95,10-14.95,2.49-3.32-.83-5-11.63-8.3-11.63-8.3-1.66-1.66-5,1.66,0,5.81,0,5.81-1.66-1.66-4.15.83-.83,5.82-.83,5.82-1.67-1.66-4.16,1.66-.83,5.81-.83,5.81Z" transform="translate(-297 -15)"/><path class="cls-84" d="M501.68,625.8h10l-5,7.47s-1.66,4.16,0,5l1.66.83-6.64.83-7.47-4.15,2.49-6.65Z" transform="translate(-297 -15)"/><path class="cls-85" d="M507.49,639.92H505a16.64,16.64,0,0,1-5.11-2.92,6.2,6.2,0,0,1-2.36-4.56,5.25,5.25,0,0,1,2.05-4A14.23,14.23,0,0,1,505,625.8V625l-15.78,1.66,2.49-24.91s.84-7.48-8.3-8.31-10,6.65-10,6.65l-5,35.71a29.45,29.45,0,0,0-.83,5.81c0,2.49,4.15,5.81,7.48,6.64" transform="translate(-297 -15)"/><rect class="cls-95" x="459.59" y="693.58" width="5.18" height="31.85" rx="2.59" transform="translate(165.79 -152.26) rotate(33.12)"/><rect class="cls-95" x="458.03" y="710.51" width="5.18" height="31.85" rx="2.59" transform="translate(174.79 -148.65) rotate(33.12)"/><rect class="cls-95" x="462.95" y="727.78" width="5.18" height="10.34" rx="2.59" transform="translate(179.15 -150.28) rotate(33.12)"/><rect class="cls-95" x="473.23" y="703.58" width="5.18" height="5.18" rx="2.59" transform="translate(166.19 -160.25) rotate(33.12)"/><line class="cls-96" x1="161.5" y1="690.52" x2="180.6" y2="702.98"/><rect class="cls-89" x="427.05" y="727.79" width="6.96" height="31.85" rx="3.48" transform="translate(179.34 -129.4) rotate(33.12)"/></g></svg>