<svg id="Calque_1" data-name="Calque 1" xmlns="http://www.w3.org/2000/svg" viewBox="0 0 1376 1024"><defs><style>.cls-1{fill:#35302d;}.cls-2{fill:#302b28;}.cls-3{fill:#3a1c05;}.cls-4{fill:#c4a08c;}.cls-5{fill:#a07c6a;}.cls-6{fill:#4c2a2a;}.cls-7{fill:#3a3938;}.cls-8{fill:#0b350b;}.cls-9{fill:#996847;}.cls-10{fill:#820707;}.cls-11{fill:#4c2d18;}.cls-12{fill:#5e3e28;}.cls-13{fill:#895531;}.cls-14{fill:#23150c;}.cls-15{fill:#5b4339;}.cls-16{fill:#110f0e;}.cls-17,.cls-37,.cls-39,.cls-59{fill:none;stroke-miterlimit:10;}.cls-17{stroke:#e0d082;}.cls-17,.cls-59{stroke-width:4px;}.cls-18{fill:#3f2020;}.cls-19{fill:#2d1709;}.cls-20{fill:#e5b97a;}.cls-21{fill:#3d2012;}.cls-22{fill:#4f4e4e;}.cls-23{fill:#56250a;}.cls-24{fill:#4b2b05;}.cls-25{fill:#633e18;}.cls-26{fill:#c9b8a6;}.cls-27{fill:#754f26;}.cls-28{fill:#efdac7;}.cls-29{fill:#d3cdcd;}.cls-30{fill:#427089;}.cls-31{fill:#4893bc;}.cls-32{fill:#2d1c10;}.cls-33{fill:#7c6b5e;}.cls-34{fill:#605d5d;}.cls-35{fill:#af8074;}.cls-36{fill:#160b07;}.cls-37,.cls-39{stroke:#050505;}.cls-37{stroke-width:2px;}.cls-38{fill:#050505;}.cls-39,.cls-59{stroke-linecap:round;}.cls-40{fill:#825d56;}.cls-41{fill:#7a563d;}.cls-42{fill:#47280d;}.cls-43{fill:#351b04;}.cls-44{fill:#281515;}.cls-45{fill:#1e0f09;}.cls-46{fill:#161616;}.cls-47{fill:#565656;}.cls-48{fill:#db9aca;}.cls-49{fill:#46ae60;}.cls-50{fill:#44353a;}.cls-51{fill:#766558;}.cls-52{fill:#93796b;}.cls-53{fill:#174c22;}.cls-54{fill:#aa16db;}.cls-55{fill:#99c358;}.cls-56{fill:#eadbc1;}.cls-57{fill:#bebebf;}.cls-58{fill:#7a7a7a;}.cls-59{stroke:#766558;}.cls-60{opacity:0.65;}</style></defs><polygon class="cls-1" points="24 842 709 1024 1376 806 1340 792 57 717 24 842"/><polygon class="cls-2" points="9.5 750.5 654.5 537.5 1358.5 731.5 718.5 944.5 9.5 750.5"/><path class="cls-3" d="M919,581" transform="translate(-287.5 -49.5)"/><polygon class="cls-4" points="9.5 751 10.5 220 75.39 198.47 655.5 6 655.5 537 9.5 751"/><path class="cls-5" d="M943,56l597,163s104,42,106,159,0,403,0,403L943,587Z" transform="translate(-287.5 -49.5)"/><polygon class="cls-6" points="474.5 400.5 502.5 519.5 413.5 546.5 389.5 426.5 474.5 400.5"/><polygon class="cls-7" points="404.63 225.24 513.35 139.41 544.02 220.82 435.65 307.59 404.63 225.24"/><polygon class="cls-8" points="409.52 225.62 510.66 145.77 539.19 221.51 438.38 302.23 409.52 225.62"/><polygon class="cls-9" points="297.5 750.5 656 862 1102.5 695.5 746.5 598.5 297.5 750.5"/><path class="cls-10" d="M1106.5,759.5c-16.73-10.45,2-26,12-10s0-25,16-10,18,33,46,20,43-17,35,0-57,5-81,30-67,43-51,15S1130.5,774.5,1106.5,759.5Z" transform="translate(-287.5 -49.5)"/><path class="cls-10" d="M877,306s-2,21,0,21,2-20,2-20l1,2v24s1,4,2,0,0-23,0-23h7s-2,34,0,35,3-39,3-39Z" transform="translate(-287.5 -49.5)"/><path class="cls-10" d="M1134,343s-2,21,0,21,2-20,2-20l1,2v24s1,4,2,0,0-23,0-23h7s-2,34,0,35,3-39,3-39Z" transform="translate(-287.5 -49.5)"/><path class="cls-10" d="M1049,500s-2,21,0,21,2-20,2-20l1,2v24s1,4,2,0,0-23,0-23h7s-2,34,0,35,3-39,3-39Z" transform="translate(-287.5 -49.5)"/><polygon class="cls-11" points="1102.5 660.85 1107.5 225.5 1273.5 264.5 1273.5 708.08 1102.5 660.85"/><polygon class="cls-12" points="1120.04 393.07 1121.78 241.56 1179.54 255.14 1179.54 409.5 1120.04 393.07"/><polygon class="cls-12" points="1199.06 413.69 1200.8 262.19 1258.56 275.76 1258.56 430.12 1199.06 413.69"/><polygon class="cls-12" points="1120.06 560.69 1121.8 409.19 1179.56 422.76 1179.56 577.12 1120.06 560.69"/><polygon class="cls-12" points="1196.06 578.69 1197.8 427.19 1255.56 440.76 1255.56 595.12 1196.06 578.69"/><circle class="cls-13" cx="1265" cy="438" r="8"/><polygon class="cls-14" points="1145 476 1142 442 1149 473 1167 468 1150 476 1154 491 1148 478 1146 486 1146 479 1133 479 1145 476"/><polygon class="cls-15" points="737 561 1103 661 1097 633 1095 653 1071 633 1053 642 1056 598 1043 640.66 1028 635 995 628 954 613 950 577 945 611 896 598 895 565 890 595 815 577 817 540 809 572 812 530 800 558 799 522 785 561 720.5 556.5 737 561"/><polygon class="cls-14" points="1221.57 252.3 1229 293 1229 305 1234 285 1250 267 1244.11 257.59 1221.57 252.3"/><polygon class="cls-15" points="9 751 363.89 633.47 286 649 265 608 273 654 256 654 223 608 238.04 662 137 701 121 662 121 696 105 654 109 699 86 717 9 736.56 9 751"/><polygon class="cls-15" points="95 207 116 237 125 270 120 218 135 238 128 202 157 189 171.91 166.28 35.26 211.62 48 259 49 214 55 241 55 215 83 233 95 207"/><polygon class="cls-15" points="489 76.67 502 117 508 102 514 87.67 525 65 541 127 551 58.67 565.91 35.95 429.26 81.29 442 147 443 83.67 454 129 449 84.67 477 102.67 489 76.67"/><polygon class="cls-15" points="747.92 31.73 748 91 781 87 761 119 800 86 800 124 816 85 806 66 831 91 845.61 58.41 747.92 31.73"/><polygon class="cls-14" points="1188 684.52 1192 624 1195 657 1201 602 1201 637 1210 592 1206 658 1205.55 688.65 1188 684.52"/><polygon class="cls-16" points="9 751 9 811 722 1000 1359 789 1358 731 718 945 9 751"/><path class="cls-1" d="M296.5,800.5l-9-2v-531l656-218,596,164s108,38,111,141,3,428,3,428l-8-2-6-426s1-86-102-135l-595-163-646,213Z" transform="translate(-287.5 -49.5)"/><ellipse class="cls-10" cx="598" cy="249.5" rx="11.5" ry="16"/><ellipse class="cls-10" cx="855" cy="286.5" rx="11.5" ry="16"/><ellipse class="cls-10" cx="770" cy="443.5" rx="11.5" ry="16"/><circle class="cls-17" cx="501.34" cy="495.62" r="9"/><polyline class="cls-17" points="501.34 504.62 501.34 526.62 510.34 526.62"/><line class="cls-17" x1="510.84" y1="517.12" x2="501.34" y2="517.12"/><path class="cls-6" d="M509.34,533.24l80.43-26.74c5.74,32.17,12,66.83,17.73,99-29.33-.33-59.17.83-88.5.5C515.78,583.08,512.56,556.16,509.34,533.24Z" transform="translate(-287.5 -49.5)"/><polygon class="cls-6" points="389.5 426.5 413.5 546.5 364.5 566.5 320.5 556.5 302.5 457.5 389.5 426.5"/><polygon class="cls-18" points="204.22 553.67 231.5 553.5 221.5 483.5 474.5 400.5 451.5 390.5 194.5 478.5 204.22 553.67"/><polyline class="cls-19" points="376.5 686.5 366.5 688.5 372.5 743.5 365.5 745.5 351.5 739.5 349.5 684.5 349.5 682.5 349.87 682.5 375.5 681.5 377.5 663.5 631.5 578.5 634.5 590.5 653.5 586.5 653.5 592.13 647.68 593.37 649.5 621.5 637.5 627.5 631.5 622.5 631.5 600.5 631.5 597.5"/><polygon class="cls-18" points="202.5 678.5 362.5 682.5 351.5 569.5 189.5 564.5 202.5 678.5"/><polygon class="cls-19" points="202.5 678.5 224.88 679.06 224.5 714.5 207.5 716.5 202.5 678.5"/><polygon class="cls-20" points="716 535 716 575 710 577 710 536 716 535"/><polygon class="cls-20" points="707 538 707 577 710 577 710 536.15 707 538"/><polygon class="cls-20" points="667 550.79 667 590.79 661 592.79 661 551.79 667 550.79"/><polygon class="cls-20" points="657.89 553.79 657.89 592.79 660.89 592.79 660.89 551.94 657.89 553.79"/><polygon class="cls-21" points="627.99 435.12 721.84 461.62 635.99 489.12 552.05 461.62 627.99 435.12"/><polygon class="cls-21" points="552 462 552 513 637 573 722 537 722 462 637 489 552 462"/><polygon class="cls-22" points="377.5 663.5 375.5 681.5 362.5 682.5 357.5 636.5 630.5 546.5 634.5 590.5 630.5 578.5 377.5 663.5"/><path class="cls-18" d="M868,513h50s12-2,15,18,8,105,8,105l-19,4-6-54L777.5,569.5q-.5-29.5-1-59Z" transform="translate(-287.5 -49.5)"/><polygon class="cls-23" points="715 481 654 500 654 516 715 496 715 481"/><polygon class="cls-23" points="655 525 655 553 716 531 716 507 655 525"/><circle class="cls-20" cx="689" cy="497" r="4"/><circle class="cls-20" cx="692" cy="522" r="4"/><polygon class="cls-24" points="330.78 287.33 404.63 321.87 160.54 390.86 79.13 353.04 330.78 287.33"/><polygon class="cls-25" points="79 351.58 160 389.58 405 320.58 405 338.58 160 408.58 79 370.58 79 351.58"/><path class="cls-26" d="M459.5,325.5v31s-29,31,0,51h22s27-19,0-50v-32Z" transform="translate(-287.5 -49.5)"/><ellipse class="cls-26" cx="183" cy="276.5" rx="11" ry="5.5"/><polygon class="cls-27" points="267.91 335 306 326.04 306 250.5 266.5 258.18 267.91 335"/><polygon points="267.13 292.75 254 321 264 321 267.44 309.24 267.13 292.75"/><polygon class="cls-28" points="271 263 301 257 301 321 274 328 271 263"/><polygon class="cls-29" points="706.64 113.57 824.14 147.07 822.64 392.57 706.64 361.57 706.64 113.57"/><polygon class="cls-30" points="718.64 123.57 759.64 136.57 759.64 201.57 718.64 190.57 718.64 123.57"/><polygon class="cls-30" points="774.64 139.57 817.64 150.57 817.14 218.07 776.64 207.57 774.64 139.57"/><polygon class="cls-30" points="718.64 211.57 817.64 239.57 815.64 371.57 718.64 345.57 718.64 211.57"/><polygon class="cls-31" points="770.64 279.57 769.64 267.57 772.64 276.57 781.64 268.57 774.64 277.57 778.64 277.57 773.64 279.57 775.64 287.57 769.64 281.57 750.64 281.57 767.64 278.57 765.64 267.57 770.64 279.57"/><rect class="cls-11" x="961.26" y="178.73" width="188.9" height="6.77" transform="translate(-119.05 -467.77) rotate(24.3)"/><rect class="cls-32" x="973.55" y="138.79" width="4" height="13" transform="translate(-113.38 -479.12) rotate(27.18)"/><rect class="cls-32" x="1123.84" y="179.56" width="4" height="13" transform="translate(-174.21 -389.64) rotate(18.08)"/><polygon class="cls-33" points="362.5 565.5 368.5 618.5 628.5 536.5 490.5 510.5 337.11 558.59 362.5 565.5"/><polygon class="cls-34" points="189.5 564.5 194.5 553.5 362.5 556.5 368.5 618.5 628.5 536.5 630.5 546.5 358 636.56 351.5 569.5 189.5 564.5"/><path class="cls-35" d="M757,500s53.2,14.55,84,9c-.2.45-33,81-35,100,0,0-63-21-80-12C726,597,763,519,757,500Z" transform="translate(-287.5 -49.5)"/><polygon class="cls-12" points="886.5 607.39 891.5 246.1 1057.5 278.46 1057.5 646.58 886.5 607.39"/><polygon class="cls-23" points="835.5 622.85 840.5 261.56 1006.5 293.92 1006.5 662.04 835.5 622.85"/><polygon class="cls-21" points="891.5 246.5 840.5 261.5 1006.5 293.5 1006.5 662.5 1057.5 646.5 1057.5 278.5 891.5 246.5"/><polygon class="cls-36" points="853.5 277.5 992.5 302.5 991.5 646.5 853.5 611.5 853.5 277.5"/><path class="cls-10" d="M344.4,508.38s-2,21,0,21,2-20,2-20l1,2v24s1,4,2,0,0-23,0-23h7s-2,34,0,35,3-39,3-39Z" transform="translate(-287.5 -49.5)"/><ellipse class="cls-10" cx="65.4" cy="451.88" rx="11.5" ry="16"/><line class="cls-37" x1="197.03" y1="398" x2="197.5" y2="433.5"/><ellipse class="cls-38" cx="198" cy="438" rx="4.5" ry="6.5"/><path class="cls-39" d="M488,484s4-4,8,0" transform="translate(-287.5 -49.5)"/><path class="cls-39" d="M488.05,487.22s4-4,8,0" transform="translate(-287.5 -49.5)"/><path class="cls-39" d="M488.05,491.22s4-4,8,0" transform="translate(-287.5 -49.5)"/><path class="cls-39" d="M475.62,484.53s4-4,8,0" transform="translate(-287.5 -49.5)"/><path class="cls-39" d="M474.62,487.53s4-4,8,0" transform="translate(-287.5 -49.5)"/><path class="cls-39" d="M475.62,491.53s4-4,8,0" transform="translate(-287.5 -49.5)"/><polygon class="cls-18" points="343.51 443.47 354.5 476.5 351.5 455.5 361.5 481.5 357.5 450.5 367.5 464.5 365.5 440.5 364.56 436.57 343.51 443.47"/><polygon class="cls-40" points="482.8 549.65 486.5 532.5 486.5 543.5 491.5 531.5 492.5 543.5 498.5 541.5 496 552.88 482.8 549.65"/><polygon class="cls-40" points="524.5 460.5 518.94 508.52 517.32 481.38 514.1 511.28 511.33 481.74 505.63 487.03 506.5 458.5 524.5 460.5"/><polygon class="cls-41" points="517.61 818.96 631.5 775.5 571.5 807.5 672.5 769.5 565.5 818.5 646.5 799.5 598.38 844.08 517.61 818.96"/><path class="cls-42" d="M458.24,759s60.92,36.28,63.54,30.88-68.66-55.53-68.66-55.53L527.59,716s3.08-4.06,1.26-7.17-90.61,15-90.61,15l-12.58,32.8,14.43,9.22,31,48.37s.9.44,3.11-1.82S458.24,759,458.24,759Z" transform="translate(-287.5 -49.5)"/><ellipse class="cls-43" cx="432.51" cy="731.05" rx="79" ry="26" transform="translate(-701.5 751.7) rotate(-64.13)"/><ellipse class="cls-42" cx="428.01" cy="728.86" rx="79" ry="21" transform="translate(-702.07 746.42) rotate(-64.13)"/><polygon class="cls-44" points="297.5 680.88 288.5 623.5 297.5 645.5 297.5 607.5 308.5 650.5 318.21 644.19 318.21 681.39 297.5 680.88"/><polygon class="cls-2" points="134.1 742.86 127.53 738.33 122.56 713.3 128.5 724.5 123.5 707.5 132.5 722.5 132.56 733.53 138.16 738.8 134.1 742.86"/><path class="cls-4" d="M457.47,657.5,430,696l15-14v14l6-19,4,13,5-23-1,30,7.84-32,4.83-.08s-3.07-5.59-7.37-5.74S464.94,657,457.47,657.5Z" transform="translate(-287.5 -49.5)"/><polygon class="cls-45" points="991.82 535.78 962.5 586.5 981.5 562.5 979.5 615.5 989.5 576.5 991.73 568.07 991.82 535.78"/><circle class="cls-46" cx="977.83" cy="267.78" r="3.28"/><path class="cls-47" d="M1289.78,326a16.46,16.46,0,0,0-.55-3.82c-1-4.07-4-9.94-12.66-9.91-13.21.1-14.09,13.35-14.09,13.35S1272.79,335,1289.78,326Z" transform="translate(-287.5 -49.5)"/><path class="cls-46" d="M1289.71,324.48s2.76-4.64,5.11-.32,4,2.2,5.43,2,1.91.26,2.53-2.64-.68-1.92-.56-.87c.2,1.86-.62,2.89-1.61,2.52-3.11,1.77-5.64.16-5.33-1.28s-4.2-4.24-5.64.15Z" transform="translate(-287.5 -49.5)"/><circle class="cls-46" cx="986.21" cy="271.1" r="3.75"/><circle class="cls-48" cx="975.86" cy="275.54" r="1.4"/><circle cx="1267.3" cy="322.26" r="0.94" transform="translate(437.76 1462.75) rotate(-79.78)"/><ellipse class="cls-20" cx="877.25" cy="468.6" rx="1.53" ry="8"/><path class="cls-49" d="M1165.43,592.23v44s-6,2-6,6v8l7,9L1167,667s18,6,22,6,14.43.23,14.43.23,7-8,0-14h-9l-10-13v-57Z" transform="translate(-287.5 -49.5)"/><path class="cls-49" d="M1221.43,673.23h30s6,0,6-5v-8l7-9s4-13-10-17l-31-49-17,9,33,52-10,12h-8s-5,2-5,7S1221.43,673.23,1221.43,673.23Z" transform="translate(-287.5 -49.5)"/><path class="cls-50" d="M1162.43,541.23v52a2,2,0,0,0,2,2h20a2.94,2.94,0,0,1,3,3v5s3,2,4,0v-47h12v47s2,3,4,0v-4s5-6,10,0v5s3,3,5,0v-9h10V526.32l-45-13.09Z" transform="translate(-287.5 -49.5)"/><path class="cls-51" d="M1176.43,431.23s-12-6-29,24v19l22,15Z" transform="translate(-287.5 -49.5)"/><path class="cls-51" d="M1222.47,488.94l-7-58s12-6,28.94,24" transform="translate(-287.5 -49.5)"/><path class="cls-52" d="M1178.43,431.23s-17-5-16,23,0,87,0,87,4,3,6,0v-6s5-8,11,0v6s3,3,6,0v-17s3-5,8,0v7h39V477.61l-1-24.38s-1-21-18-21S1178.43,431.23,1178.43,431.23Z" transform="translate(-287.5 -49.5)"/><path class="cls-53" d="M1184.43,441.23v4s11,11,24,0v-8l-24,2Z" transform="translate(-287.5 -49.5)"/><path class="cls-54" d="M1202.43,351.42s24.17-.19,24.59,22.81-30.59,15-30.59,15l-3-30Z" transform="translate(-287.5 -49.5)"/><path class="cls-55" d="M1161.43,389.23v-16s6-25,24-25h17v14h3v2h9v4h2v6h15v15h4s6,3,6,9-6,9-6,9h-4v8c0,5-12,26-23,26s-21,1-24,0-23-12-23-24v-9h-4s-6-1-6-9a10.23,10.23,0,0,1,7-10Z" transform="translate(-287.5 -49.5)"/><path class="cls-11" d="M1199.43,450.23" transform="translate(-287.5 -49.5)"/><path class="cls-49" d="M1161.43,394.23v9s-3-1-3-5S1161.43,394.23,1161.43,394.23Z" transform="translate(-287.5 -49.5)"/><path class="cls-49" d="M1231.43,394.24v9s2.92-1,2.92-5S1231.43,394.24,1231.43,394.24Z" transform="translate(-287.5 -49.5)"/><path class="cls-49" d="M1218.43,412.23V436.4s13-9.42,13-20V399.58Z" transform="translate(-287.5 -49.5)"/><path class="cls-49" d="M1174.51,412l-.08,23.24s-13-7-13-19.09V399.33Z" transform="translate(-287.5 -49.5)"/><circle class="cls-56" cx="925.93" cy="340.73" r="10"/><path class="cls-56" d="M1189.43,390.23a10,10,0,0,1-20,0" transform="translate(-287.5 -49.5)"/><path class="cls-57" d="M1184.43,425.23c1,1,22,0,22,0a4.33,4.33,0,0,0,2-4v-5s0-7-6-9-12-1-14,1-3,3-4,5S1183.43,424.23,1184.43,425.23Z" transform="translate(-287.5 -49.5)"/><path class="cls-58" d="M1195.17,406.14v5.09h6.26v-4.3A27.62,27.62,0,0,0,1195.17,406.14Z" transform="translate(-287.5 -49.5)"/><path class="cls-58" d="M1188,408.69v2.54h5.45v-5S1188.53,407.14,1188,408.69Z" transform="translate(-287.5 -49.5)"/><path class="cls-58" d="M1183.68,421.1c.75.13,16.75.13,16.75.13v4.24h-.89v1.76h-2.11v8h-5v-8h-3v11h-5v-13S1182.93,421,1183.68,421.1Z" transform="translate(-287.5 -49.5)"/><rect class="cls-55" x="1160.72" y="454.79" width="13" height="20" rx="3.17" transform="translate(1053.34 -829.01) rotate(76.23)"/><rect class="cls-49" x="1158.73" y="462.88" width="8" height="5" rx="1.76" transform="translate(1050.49 -824.2) rotate(76.23)"/><rect class="cls-49" x="1227.01" y="458.1" width="42" height="33.13" rx="15.02" transform="translate(117.03 -609.91) rotate(30)"/><rect class="cls-55" x="947.93" y="398.73" width="13" height="20" rx="3.17"/><rect class="cls-49" x="949.93" y="410.73" width="8" height="5" rx="1.76"/><rect class="cls-55" x="1252.87" y="450.74" width="13" height="20" rx="3.17" transform="translate(295.22 -746.53) rotate(39.6)"/><rect class="cls-49" x="1252.12" y="461.39" width="8" height="5" rx="1.76" transform="translate(296.48 -743.74) rotate(39.6)"/><rect class="cls-55" x="1263.87" y="463.74" width="13" height="20" rx="3.17" transform="translate(29.55 -539.84) rotate(24.87)"/><rect class="cls-49" x="1264.03" y="475.11" width="8" height="5" rx="1.76" transform="translate(30.96 -538.5) rotate(24.87)"/><rect class="cls-55" x="1219.43" y="469.23" width="13" height="20" rx="3.17" transform="translate(-283.81 918.31) rotate(-43.14)"/><rect class="cls-49" x="1224.64" y="480.36" width="8" height="5" rx="1.76" transform="translate(-285.55 921.14) rotate(-43.14)"/><line class="cls-59" x1="929.93" y1="453.73" x2="929.93" y2="460.73"/><polygon class="cls-60" points="853.5 278.97 992.5 303.97 991.5 647.97 853.5 612.97 853.5 278.97"/><polygon class="cls-21" points="853.95 279.6 880.5 304.6 880.31 648.6 853.95 613.6 853.95 279.6"/><polygon class="cls-45" points="880.37 537.88 874.77 588.6 878.4 564.6 878.02 617.6 879.93 578.6 880.35 570.17 880.37 537.88"/><polygon points="853.5 279.5 853.5 277.5 858.5 277.5 884.5 302.5 884.5 646.5 880.5 648.5 880.5 304.5 853.5 279.5"/><ellipse class="cls-20" cx="877.5" cy="462.5" rx="2" ry="8"/></svg>