<svg id="Calque_1" data-name="Calque 1" xmlns="http://www.w3.org/2000/svg" viewBox="0 0 1920 1079.5"><defs><style>.cls-1{fill:#35302d;}.cls-2{fill:#302b28;}.cls-3{fill:#3a1c05;}.cls-4{fill:#c4a08c;}.cls-5{fill:#a07c6a;}.cls-6{fill:#4c2a2a;}.cls-7{fill:#d3cdcd;}.cls-8{fill:#427089;}.cls-9{fill:#3a3938;}.cls-10{fill:#0b350b;}.cls-11{fill:#4893bc;}.cls-12{fill:#996847;}.cls-13{fill:#820707;}.cls-14{fill:#4c2d18;}.cls-15{fill:#5e3e28;}.cls-16{fill:#895531;}.cls-17{fill:#23150c;}.cls-18{fill:#5b4339;}.cls-19{fill:#47280d;}.cls-20{fill:#2d1c10;}.cls-21{fill:#351b04;}.cls-22{fill:#110f0e;}.cls-23{fill:none;stroke:#e0d082;stroke-miterlimit:10;stroke-width:4px;}.cls-24{fill:#3f2020;}.cls-25{fill:#2d1709;}.cls-26{fill:#e5b97a;}.cls-27{fill:#3d2012;}.cls-28{fill:#7c6b5e;}.cls-29{fill:#4f4e4e;}.cls-30{fill:#af8074;}.cls-31{fill:#56250a;}.cls-32{fill:#605d5d;}.cls-33{fill:#4b2b05;}.cls-34{fill:#633e18;}.cls-35{fill:#c9b8a6;}.cls-36{fill:#754f26;}.cls-37{fill:#efdac7;}.cls-38,.cls-40{fill:#777675;}.cls-38{opacity:0.43;}.cls-39{fill:#1c1c1c;}</style></defs><polygon class="cls-1" points="311.5 897.5 996.5 1079.5 1663.5 861.5 1627.5 847.5 344.5 772.5 311.5 897.5"/><polygon class="cls-2" points="297 806 942 593 1646 787 1006 1000 297 806"/><path class="cls-3" d="M919,581" transform="translate(0 6)"/><polygon class="cls-4" points="296.5 806.5 297.5 275.5 362.38 253.97 942.5 61.5 942.5 592.5 296.5 806.5"/><path class="cls-5" d="M943,56l597,163s104,42,106,159,0,403,0,403L943,587Z" transform="translate(0 6)"/><polygon class="cls-6" points="762 456 790 575 701 602 677 482 762 456"/><polygon class="cls-7" points="1213 232 1330.5 265.5 1329 511 1213 480 1213 232"/><polygon class="cls-8" points="1225 242 1266 255 1266 320 1225 309 1225 242"/><polygon class="cls-8" points="1281 258 1324 269 1323.5 336.5 1283 326 1281 258"/><polygon class="cls-8" points="1225 330 1324 358 1322 490 1225 464 1225 330"/><polygon class="cls-9" points="692.13 280.74 800.85 194.91 831.52 276.32 723.15 363.09 692.13 280.74"/><polygon class="cls-10" points="697.02 281.12 798.16 201.27 826.69 277.01 725.88 357.73 697.02 281.12"/><polygon class="cls-11" points="1277 398 1276 386 1279 395 1288 387 1281 396 1285 396 1280 398 1282 406 1276 400 1257 400 1274 397 1272 386 1277 398"/><polygon class="cls-12" points="585 806 943.5 917.5 1390 751 1034 654 585 806"/><path class="cls-13" d="M1106.5,759.5c-16.73-10.45,2-26,12-10s0-25,16-10,18,33,46,20,43-17,35,0-57,5-81,30-67,43-51,15S1130.5,774.5,1106.5,759.5Z" transform="translate(0 6)"/><path class="cls-13" d="M877,306s-2,21,0,21,2-20,2-20l1,2v24s1,4,2,0,0-23,0-23h7s-2,34,0,35,3-39,3-39Z" transform="translate(0 6)"/><path class="cls-13" d="M1134,343s-2,21,0,21,2-20,2-20l1,2v24s1,4,2,0,0-23,0-23h7s-2,34,0,35,3-39,3-39Z" transform="translate(0 6)"/><path class="cls-13" d="M1049,500s-2,21,0,21,2-20,2-20l1,2v24s1,4,2,0,0-23,0-23h7s-2,34,0,35,3-39,3-39Z" transform="translate(0 6)"/><polygon class="cls-14" points="1390 716.35 1395 281 1561 320 1561 763.58 1390 716.35"/><polygon class="cls-15" points="1407.54 448.57 1409.28 297.06 1467.04 310.64 1467.04 465 1407.54 448.57"/><polygon class="cls-15" points="1486.56 469.19 1488.3 317.69 1546.06 331.26 1546.06 485.62 1486.56 469.19"/><polygon class="cls-15" points="1407.56 616.19 1409.3 464.69 1467.06 478.26 1467.06 632.62 1407.56 616.19"/><polygon class="cls-15" points="1483.56 634.19 1485.3 482.69 1543.06 496.26 1543.06 650.62 1483.56 634.19"/><circle class="cls-16" cx="1552.5" cy="493.5" r="8"/><polygon class="cls-17" points="1432.5 531.5 1429.5 497.5 1436.5 528.5 1454.5 523.5 1437.5 531.5 1441.5 546.5 1435.5 533.5 1433.5 541.5 1433.5 534.5 1420.5 534.5 1432.5 531.5"/><polygon class="cls-18" points="1024.5 616.5 1390.5 716.5 1384.5 688.5 1382.5 708.5 1358.5 688.5 1340.5 697.5 1343.5 653.5 1330.5 696.16 1315.5 690.5 1282.5 683.5 1241.5 668.5 1237.5 632.5 1232.5 666.5 1183.5 653.5 1182.5 620.5 1177.5 650.5 1102.5 632.5 1104.5 595.5 1096.5 627.5 1099.5 585.5 1087.5 613.5 1086.5 577.5 1072.5 616.5 1008 612 1024.5 616.5"/><polygon class="cls-17" points="1509.07 307.8 1516.5 348.5 1516.5 360.5 1521.5 340.5 1537.5 322.5 1531.61 313.09 1509.07 307.8"/><polygon class="cls-18" points="296.5 806.5 651.39 688.97 573.5 704.5 552.5 663.5 560.5 709.5 543.5 709.5 510.5 663.5 525.54 717.5 424.5 756.5 408.5 717.5 408.5 751.5 392.5 709.5 396.5 754.5 373.5 772.5 296.5 792.06 296.5 806.5"/><path class="cls-19" d="M458.24,759s60.92,36.28,63.54,30.88-68.66-55.53-68.66-55.53L527.59,716s3.08-4.06,1.26-7.17-90.61,15-90.61,15l-12.58,32.8,14.43,9.22,31,48.37s.9.44,3.11-1.82S458.24,759,458.24,759Z" transform="translate(0 6)"/><rect class="cls-14" x="1180.12" y="241.67" width="188.9" height="6.77" transform="translate(213.73 -496.75) rotate(24.3)"/><rect class="cls-20" x="1192.41" y="201.72" width="4" height="13" transform="translate(227.04 -516.65) rotate(27.18)"/><rect class="cls-20" x="1342.7" y="242.49" width="4" height="13" transform="translate(143.62 -398.94) rotate(18.08)"/><ellipse class="cls-21" cx="432.51" cy="731.05" rx="79" ry="26" transform="translate(-414 807.2) rotate(-64.13)"/><ellipse class="cls-19" cx="428.01" cy="728.86" rx="79" ry="21" transform="translate(-414.57 801.92) rotate(-64.13)"/><polygon class="cls-18" points="382.5 262.5 403.5 292.5 412.5 325.5 407.5 273.5 422.5 293.5 415.5 257.5 444.5 244.5 459.41 221.78 322.76 267.12 335.5 314.5 336.5 269.5 342.5 296.5 342.5 270.5 370.5 288.5 382.5 262.5"/><polygon class="cls-18" points="776.5 132.17 789.5 172.5 795.5 157.5 801.5 143.17 812.5 120.5 828.5 182.5 838.5 114.17 853.41 91.45 716.76 136.79 729.5 202.5 730.5 139.17 741.5 184.5 736.5 140.17 764.5 158.17 776.5 132.17"/><polygon class="cls-18" points="1035.42 87.23 1035.5 146.5 1068.5 142.5 1048.5 174.5 1087.5 141.5 1087.5 179.5 1103.5 140.5 1093.5 121.5 1118.5 146.5 1133.11 113.91 1035.42 87.23"/><polygon class="cls-17" points="1475.5 740.02 1479.5 679.5 1482.5 712.5 1488.5 657.5 1488.5 692.5 1497.5 647.5 1493.5 713.5 1493.05 744.15 1475.5 740.02"/><polygon class="cls-22" points="296.5 806.5 296.5 866.5 1009.5 1055.5 1646.5 844.5 1645.5 786.5 1005.5 1000.5 296.5 806.5"/><path class="cls-1" d="M296.5,800.5l-9-2v-531l656-218,596,164s108,38,111,141,3,428,3,428l-8-2-6-426s1-86-102-135l-595-163-646,213Z" transform="translate(0 6)"/><ellipse class="cls-13" cx="885.5" cy="305" rx="11.5" ry="16"/><ellipse class="cls-13" cx="1142.5" cy="342" rx="11.5" ry="16"/><ellipse class="cls-13" cx="1057.5" cy="499" rx="11.5" ry="16"/><circle class="cls-23" cx="788.84" cy="551.12" r="9"/><polyline class="cls-23" points="788.84 560.12 788.84 582.12 797.84 582.12"/><line class="cls-23" x1="798.34" y1="572.62" x2="788.84" y2="572.62"/><path class="cls-6" d="M509.34,533.24l80.43-26.74c5.74,32.17,12,66.83,17.73,99-29.33-.33-59.17.83-88.5.5C515.78,583.08,512.56,556.16,509.34,533.24Z" transform="translate(0 6)"/><polygon class="cls-6" points="677 482 701 602 652 622 608 612 590 513 677 482"/><polygon class="cls-24" points="491.72 609.17 519 609 509 539 762 456 739 446 482 534 491.72 609.17"/><polyline class="cls-25" points="664 742 654 744 660 799 653 801 639 795 637 740 637 738 637.37 738 663 737 665 719 919 634 922 646 941 642 941 647.63 935.18 648.87 937 677 925 683 919 678 919 656 919 653"/><polygon class="cls-24" points="490 734 650 738 639 625 477 620 490 734"/><polygon class="cls-25" points="490 734 512.38 734.56 512 770 495 772 490 734"/><polygon class="cls-26" points="1003.5 590.5 1003.5 630.5 997.5 632.5 997.5 591.5 1003.5 590.5"/><polygon class="cls-26" points="994.5 593.5 994.5 632.5 997.5 632.5 997.5 591.65 994.5 593.5"/><polygon class="cls-26" points="954.5 606.29 954.5 646.29 948.5 648.29 948.5 607.29 954.5 606.29"/><polygon class="cls-26" points="945.39 609.29 945.39 648.29 948.39 648.29 948.39 607.44 945.39 609.29"/><polygon class="cls-27" points="915.49 490.62 1009.34 517.12 923.49 544.62 839.55 517.12 915.49 490.62"/><polygon class="cls-27" points="839.5 517.5 839.5 568.5 924.5 628.5 1009.5 592.5 1009.5 517.5 924.5 544.5 839.5 517.5"/><polygon class="cls-28" points="650 621 656 674 916 592 784.5 566.5 624.61 614.09 650 621"/><polygon class="cls-29" points="665 719 663 737 650 738 645 692 918 602 922 646 918 634 665 719"/><path class="cls-24" d="M868,513h50s12-2,15,18,8,105,8,105l-19,4-6-54L777.5,569.5q-.5-29.5-1-59Z" transform="translate(0 6)"/><path class="cls-30" d="M752,496s53.2,14.55,84,9c-.2.45-33,81-35,100,0,0-63-21-80-12C721,593,758,515,752,496Z" transform="translate(0 6)"/><polygon class="cls-31" points="1002.5 536.5 941.5 555.5 941.5 571.5 1002.5 551.5 1002.5 536.5"/><polygon class="cls-31" points="942.5 580.5 942.5 608.5 1003.5 586.5 1003.5 562.5 942.5 580.5"/><circle class="cls-26" cx="976.5" cy="552.5" r="4"/><circle class="cls-26" cx="979.5" cy="577.5" r="4"/><polygon class="cls-32" points="477 620 482 609 650 612 656 674 916 592 918 602 645.5 692.06 639 625 477 620"/><polygon class="cls-33" points="618.28 342.83 692.13 377.37 448.05 446.36 366.63 408.54 618.28 342.83"/><polygon class="cls-34" points="366.5 407.08 447.5 445.08 692.5 376.08 692.5 394.08 447.5 464.08 366.5 426.08 366.5 407.08"/><path class="cls-35" d="M459.5,325.5v31s-29,31,0,51h22s27-19,0-50v-32Z" transform="translate(0 6)"/><ellipse class="cls-35" cx="470.5" cy="332" rx="11" ry="5.5"/><polygon class="cls-36" points="555.41 390.5 593.5 381.54 593.5 306 554 313.68 555.41 390.5"/><polygon points="554.63 348.25 541.5 376.5 551.5 376.5 554.94 364.74 554.63 348.25"/><polygon class="cls-37" points="558.5 318.5 588.5 312.5 588.5 376.5 561.5 383.5 558.5 318.5"/><rect class="cls-38" width="1920" height="1079"/><rect class="cls-39" x="552.11" y="334.47" width="849.71" height="391.14" transform="translate(452.91 1516.23) rotate(-90.35)"/><rect class="cls-40" x="658.69" y="330.2" width="633.66" height="291.69" transform="translate(505.45 1460.46) rotate(-90.35)"/><circle class="cls-40" cx="987.91" cy="883.03" r="40.46"/></svg>