<svg xmlns="http://www.w3.org/2000/svg" xmlns:xlink="http://www.w3.org/1999/xlink" viewBox="0 0 1376 1024"><defs><style>.cls-1{fill:#35302d;}.cls-2{fill:#9ea09c;}.cls-3{fill:#3a1c05;}.cls-4{fill:#d1cfcd;}.cls-5{fill:#a3a3a3;}.cls-6{fill:#d3cdcd;}.cls-7{fill:#427089;}.cls-8{fill:#4893bc;}.cls-9{fill:#4c2d18;}.cls-10{fill:#5e3e28;}.cls-11{fill:#895531;}.cls-12{fill:#23150c;}.cls-13{fill:#7c7c7b;}.cls-14{fill:#110f0e;}.cls-15{fill:#474341;}.cls-16{fill:#959695;}.cls-17{fill:#aeafae;}.cls-18{fill:#898989;}.cls-19{fill:#636363;}.cls-20{fill:#e1e2e0;}.cls-21{fill:#9b6a46;}.cls-22{fill:#382a1f;}.cls-23{fill:#111110;}.cls-24{fill:#724f37;}.cls-25{fill:#771812;}.cls-26{fill:#161616;}.cls-27{fill:#565656;}.cls-28{fill:#d09cc6;}.cls-29{fill:#0e0f0e;}.cls-30{fill:#edbf5a;}.cls-31{fill:#f8ebd4;}.cls-32{fill:#262626;}.cls-33{fill:#191e19;}.cls-34{fill:#117011;}.cls-35{fill:#0d2b0d;}.cls-36,.cls-37,.cls-38,.cls-39,.cls-41,.cls-42,.cls-43,.cls-44{fill:none;stroke-linecap:round;stroke-miterlimit:10;}.cls-36,.cls-37,.cls-38,.cls-42{stroke:#0e0f0e;}.cls-36,.cls-43{stroke-width:12px;}.cls-37{stroke-width:4px;}.cls-38{stroke-width:14px;}.cls-39{stroke:#957560;stroke-width:16px;}.cls-40{fill:#56534f;}.cls-41{stroke:#938f8a;stroke-width:10px;}.cls-42,.cls-44{stroke-width:17px;}.cls-43,.cls-44{stroke:#5b5b5b;}.cls-45{fill:url(#Dégradé_sans_nom_9);}.cls-46{fill:#171914;}</style><linearGradient id="Dégradé_sans_nom_9" x1="792.29" y1="647.97" x2="792.29" y2="302" gradientUnits="userSpaceOnUse"><stop offset="0" stop-color="#771812"/><stop offset="0" stop-color="#751812"/><stop offset="0.06" stop-color="#56110d"/><stop offset="0.13" stop-color="#3b0c09"/><stop offset="0.21" stop-color="#250806"/><stop offset="0.3" stop-color="#140403"/><stop offset="0.41" stop-color="#090201"/><stop offset="0.57" stop-color="#020000"/><stop offset="1"/></linearGradient></defs><g id="Calque_1" data-name="Calque 1"><polygon class="cls-1" points="24 842 709 1024 1376 806 1340 792 57 717 24 842"/><polygon class="cls-2" points="9.5 750.5 654.5 537.5 1358.5 731.5 718.5 944.5 9.5 750.5"/><path class="cls-3" d="M919,581" transform="translate(-287.5 -49.5)"/><polygon class="cls-4" points="9 751 10 220 74.89 198.47 655 6 655 537 9 751"/><path class="cls-5" d="M943,56l597,163s104,42,106,159,0,403,0,403L943,587Z" transform="translate(-287.5 -49.5)"/><polygon class="cls-6" points="925.5 176.5 1043 210 1041.5 455.5 925.5 424.5 925.5 176.5"/><polygon class="cls-7" points="937.5 186.5 978.5 199.5 978.5 264.5 937.5 253.5 937.5 186.5"/><polygon class="cls-7" points="993.5 202.5 1036.5 213.5 1036 281 995.5 270.5 993.5 202.5"/><polygon class="cls-7" points="937.5 274.5 1036.5 302.5 1034.5 434.5 937.5 408.5 937.5 274.5"/><polygon class="cls-8" points="989.5 342.5 988.5 330.5 991.5 339.5 1000.5 331.5 993.5 340.5 997.5 340.5 992.5 342.5 994.5 350.5 988.5 344.5 969.5 344.5 986.5 341.5 984.5 330.5 989.5 342.5"/><polygon class="cls-9" points="1102.5 660.85 1107.5 225.5 1273.5 264.5 1273.5 708.08 1102.5 660.85"/><polygon class="cls-10" points="1120.04 393.07 1121.78 241.56 1179.54 255.14 1179.54 409.5 1120.04 393.07"/><polygon class="cls-10" points="1199.06 413.69 1200.8 262.19 1258.56 275.76 1258.56 430.12 1199.06 413.69"/><polygon class="cls-10" points="1120.06 560.69 1121.8 409.19 1179.56 422.76 1179.56 577.12 1120.06 560.69"/><polygon class="cls-10" points="1196.06 578.69 1197.8 427.19 1255.56 440.76 1255.56 595.12 1196.06 578.69"/><circle class="cls-11" cx="1265" cy="438" r="8"/><polygon class="cls-12" points="1145 476 1142 442 1149 473 1167 468 1150 476 1154 491 1148 478 1146 486 1146 479 1133 479 1145 476"/><polygon class="cls-13" points="737 561 1103 661 1097 633 1095 653 1071 633 1053 642 1056 598 1043 640.66 1028 635 995 628 954 613 950 577 945 611 896 598 895 565 890 595 815 577 817 540 809 572 812 530 800 558 799 522 785 561 720.5 556.5 737 561"/><polygon class="cls-12" points="1221.57 252.3 1229 293 1229 305 1234 285 1250 267 1244.11 257.59 1221.57 252.3"/><polygon class="cls-13" points="95 207 116 237 125 270 120 218 135 238 128 202 157 189 171.91 166.28 35.26 211.62 48 259 49 214 55 241 55 215 83 233 95 207"/><polygon class="cls-13" points="489 76.67 502 117 508 102 514 87.67 525 65 541 127 551 58.67 565.91 35.95 429.26 81.29 442 147 443 83.67 454 129 449 84.67 477 102.67 489 76.67"/><polygon class="cls-13" points="747.92 31.73 748 91 781 87 761 119 800 86 800 124 816 85 806 66 831 91 845.61 58.41 747.92 31.73"/><polygon class="cls-12" points="1188 684.52 1192 624 1195 657 1201 602 1201 637 1210 592 1206 658 1205.55 688.65 1188 684.52"/><polygon class="cls-14" points="9 751 9 811 722 1000 1359 789 1358 731 718 945 9 751"/><path class="cls-1" d="M296.5,800.5l-9-2v-531l656-218,596,164s108,38,111,141,3,428,3,428l-8-2-6-426s1-86-102-135l-595-163-646,213Z" transform="translate(-287.5 -49.5)"/><polygon class="cls-15" points="724.5 369.5 724.5 388.5 755.5 395.5 755.5 375.5 724.5 369.5"/></g><g id="meuble"><path class="cls-16" d="M482.83,731.41S517,763,511,767s-95-6-95-6l23-44Z" transform="translate(-287.5 -49.5)"/><polygon class="cls-17" points="477.09 575.84 693.28 639.08 867.87 581.96 645.22 520.3 477.09 575.84"/><polygon class="cls-18" points="477.46 592.03 477.46 575.71 693.25 639.18 868.24 582.06 868.24 598.38 693.25 655.5 477.46 592.03"/><polygon class="cls-19" points="502.85 575.71 645.2 528.57 837.26 581.64 693.25 631.02 502.85 575.71"/><polygon class="cls-16" points="645.59 528.57 645.2 547.61 533.41 584.59 502.85 575.71 645.59 528.57"/><polygon class="cls-20" points="806.3 592.25 837.41 582.06 645.2 528.57 645.2 547.61 806.3 592.25"/><polygon points="755.5 382.5 761.5 384.5 761.5 389.5 755.5 387.5 755.5 382.5"/><polygon points="724.5 378.39 724.5 382.5 719.5 381.5 719.5 376.5 724.5 378.39"/><ellipse class="cls-21" cx="998.5" cy="257" rx="9.5" ry="14" transform="translate(-75.62 874.04) rotate(-54.71)"/><path d="M987,249s10-12,20-5,8,15,2,21C1009,265,1010,245,987,249Z" transform="translate(-287.5 -49.5)"/><polygon points="719.5 194.5 722.5 190.5 725.5 192.5 722.5 196.97 719.5 194.5"/><polygon points="722.5 190.5 740.5 216.5 747.5 211.5 727.5 185.5 722.5 190.5"/><polygon class="cls-22" points="732.5 208.5 734.5 210.5 744.5 202.5 742.5 200.5 732.5 208.5"/><path class="cls-22" d="M1030.77,264S1008,459,1023,465s13-32,13-32h-4s2,37-8,27,0-99.71,8-196.86C1032,263,1030.77,264,1030.77,264Z" transform="translate(-287.5 -49.5)"/><polygon class="cls-23" points="352.01 687.75 488.43 642.56 672.5 693.42 534.49 740.75 352.01 687.75"/><polygon class="cls-16" points="290.85 530.76 290.68 548.17 349.82 564.69 443.75 533.38 443.75 517.43 349.82 548.17 290.85 530.76"/><path class="cls-18" d="M412.87,674.89l-1.65,31.23s32.87,36.15,83.81,23V697.83Z" transform="translate(-287.5 -49.5)"/><path class="cls-18" d="M526.26,683.11l-1.65,31.22A60.77,60.77,0,0,1,495,729.12V697.9Z" transform="translate(-287.5 -49.5)"/><ellipse class="cls-17" cx="470.22" cy="678.87" rx="19.53" ry="56.8" transform="translate(-524.15 1056.35) rotate(-86.42)"/><ellipse class="cls-19" cx="473.43" cy="677.34" rx="11.94" ry="34.71" transform="translate(-519.62 1058.11) rotate(-86.42)"/><ellipse class="cls-17" cx="140.16" cy="559.66" rx="47.66" ry="59.16"/><ellipse class="cls-16" cx="140.66" cy="560.15" rx="41.96" ry="52.09"/><polygon class="cls-10" points="274.31 247.22 407.25 204.69 407.25 370.42 273.43 416.5 274.31 247.22"/><polygon class="cls-9" points="409.25 206.57 385.32 191.5 251.5 234.04 251.5 403.31 275.43 418.38 275.43 247.33 409.25 206.57"/><ellipse class="cls-16" cx="463.38" cy="763.79" rx="16.43" ry="47.79" transform="translate(-615.32 1129.15) rotate(-86.42)"/><polygon class="cls-9" points="289.76 256.31 392.5 223.43 392.5 351.51 289.07 387.13 289.76 256.31"/><polygon class="cls-9" points="295.96 261.37 398.7 228.49 398.7 356.57 295.27 392.19 295.96 261.37"/><polygon class="cls-24" points="392.5 223.5 398.5 228.5 295.5 261.5 295.5 392.5 289.5 387.5 289.5 256.5 392.5 223.5"/><circle class="cls-11" cx="383.5" cy="305.5" r="8"/><path class="cls-25" d="M1132,460s-2,21,0,21,2-20,2-20l1,2v24s1,4,2,0,0-23,0-23h7s-2,34,0,35,3-39,3-39Z" transform="translate(-287.5 -49.5)"/><ellipse class="cls-25" cx="853" cy="403.5" rx="11.5" ry="16"/><path class="cls-25" d="M957,297s-2,21,0,21,2-20,2-20l1,2v24s1,4,2,0,0-23,0-23h7s-2,34,0,35,3-39,3-39Z" transform="translate(-287.5 -49.5)"/><ellipse class="cls-25" cx="678" cy="240.5" rx="11.5" ry="16"/><path class="cls-25" d="M507,460s-2,21,0,21,2-20,2-20l1,2v24s1,4,2,0,0-23,0-23h7s-2,34,0,35,3-39,3-39Z" transform="translate(-287.5 -49.5)"/><ellipse class="cls-25" cx="228" cy="403.5" rx="11.5" ry="16"/><path class="cls-25" d="M1298,490s-2,21,0,21,2-20,2-20l1,2v24s1,4,2,0,0-23,0-23h7s-2,34,0,35,3-39,3-39Z" transform="translate(-287.5 -49.5)"/><ellipse class="cls-25" cx="1019" cy="433.5" rx="11.5" ry="16"/><path class="cls-25" d="M754,291" transform="translate(-287.5 -49.5)"/><path class="cls-25" d="M1077,772s6-63,42-49,6,60,33,58,88,15,48,30-106,74-112,34,60-53,16-53-106,9-105-10,14-33,29-32S1073,791,1077,772Z" transform="translate(-287.5 -49.5)"/><circle class="cls-26" cx="723.45" cy="901.87" r="6.2"/><path class="cls-27" d="M1059.34,959.33a32.36,32.36,0,0,0-2.31-6.88c-3.31-7.22-10.85-17.13-26.88-14.18-24.52,4.53-21.7,29.55-21.7,29.55S1030.78,981.86,1059.34,959.33Z" transform="translate(-287.5 -49.5)"/><path class="cls-26" d="M1058.68,956.57s3.59-9.54,9.42-2.42,8.08,2.76,10.76,2,3.65-.16,3.83-5.75-1.92-3.35-1.35-1.45c1,3.4-.19,5.6-2.13,5.25-5.19,4.32-10.44,2.18-10.35-.61s-9.31-6.47-10.43,2.18Z" transform="translate(-287.5 -49.5)"/><circle class="cls-26" cx="740.15" cy="905.22" r="7.08"/><circle class="cls-28" cx="722.4" cy="916.96" r="2.66"/><circle cx="728.77" cy="910.45" r="1.77"/><path class="cls-29" d="M851.69,457.09a28.65,28.65,0,0,1-11-23.11c0-15.65,4.27-22.36,4.27-22.36l25.59-31.31s8.53-8.95,17.66,0,25.59,31.31,25.59,31.31,6.1,6.71,5.49,20.87-11,24.6-11,24.6v1.49h5.48L951,504.05v8.2s-1.22,11.19-7.31,12.68-25.59,1.49-25.59,1.49l-.61,96.91H868.75V633H815.13V621.84h21.33v-9h4.26V518.22l-24.37,42.49s-3.05,4.47-8.53,0V501.82s27.42-38,32.9-41a19.73,19.73,0,0,1,11-2.24Z" transform="translate(-287.5 -49.5)"/><polygon class="cls-30" points="617.8 503.01 644.61 503.01 644.61 544.01 618.41 544.01 617.8 503.01"/><path class="cls-31" d="M859.61,425s0-20.88,18.28-20.88S898.6,425,898.6,425v16.4s-.61,6.71-4.87,6.71h-3.66v8.94h-5.48v-3h-3.05v3h-4.87v-3h-3v3h-4.87v-8.94h-4.27s-5.48,0-5.48-6.71S859.61,425,859.61,425Z" transform="translate(-287.5 -49.5)"/><rect class="cls-32" x="587.95" y="393.43" width="2.44" height="7.45"/><rect class="cls-32" x="592.82" y="393.43" width="2.44" height="7.45"/><path class="cls-33" d="M874.23,441.44h-7.31a3.77,3.77,0,0,1-2.44-3.73V434s.61-3.72,3.66-3.72,8.53,4.47,8.53,5.21V440S876.67,441.44,874.23,441.44Z" transform="translate(-287.5 -49.5)"/><path class="cls-33" d="M884,441.53h7.27a3.74,3.74,0,0,0,2.42-3.72v-3.73s-.61-3.73-3.64-3.73-8.47,4.47-8.47,5.22V440S881.62,441.53,884,441.53Z" transform="translate(-287.5 -49.5)"/><path class="cls-31" d="M927.85,501.82v17.89s-1.22,4.47-3.66,0v-8.2h-2.44v8.2s-1.82,4.47-4.26,0v-8.2h-2.44v8.2s-1.22,3.73-4.26,0V501.82s1.83-3.73,4.26,0v1.49h2.44v-1.49s1.83-3,4.26,0v1.49h2.44v-1.49S926,498.84,927.85,501.82Z" transform="translate(-287.5 -49.5)"/><path class="cls-34" d="M904.69,544.31h3V522s.61-8.2,11.58-8.2,11.57,8.2,11.57,8.2v22.36h3.05V522s.61-11.19-14.62-11.19S904.69,522,904.69,522Z" transform="translate(-287.5 -49.5)"/><path class="cls-34" d="M950.4,546.33" transform="translate(-287.5 -49.5)"/><path class="cls-35" d="M907.74,544.31v-5.64s.61-4,7.92-4v-.75s0-3,1.22-3v-3.73s2.44-3,4.27,0v3.73s1.21,0,1.21,2.24v1.49s8.53-1.35,8.53,4.54v5.15Z" transform="translate(-287.5 -49.5)"/><line class="cls-36" x1="615.98" y1="499.28" x2="646.44" y2="499.28"/><path class="cls-37" d="M905.3,589l.61-34.3s7.31-.74,12.8,9V589" transform="translate(-287.5 -49.5)"/><path class="cls-37" d="M932.72,589l-.58-34.3s-7-.74-12.21,9V589" transform="translate(-287.5 -49.5)"/><line class="cls-38" x1="615.98" y1="544.75" x2="645.83" y2="544.75"/><line class="cls-39" x1="535.55" y1="295.77" x2="535.55" y2="576.81"/><path class="cls-40" d="M811.48,359.44v17.14s-.61,6,9.74,2.24,40.22-14.16,40.22-14.16,9.74-2.24,18.27,0,25.59,10.43,28,17.89,6.7-3.73,6.7-3.73-14.62-40.25-43.26-41c-1.21,0-7.92-1.49-13.4,0s-43.87,15.65-43.87,15.65S810.87,354.22,811.48,359.44Z" transform="translate(-287.5 -49.5)"/><line class="cls-41" x1="547.13" y1="306.96" x2="568.45" y2="299.5"/><path class="cls-42" d="M856.56,627.8" transform="translate(-287.5 -49.5)"/><path class="cls-42" d="M813.91,627.8" transform="translate(-287.5 -49.5)"/><line class="cls-38" x1="550.17" y1="565.63" x2="573.94" y2="565.63"/><path class="cls-31" d="M815.74,506.29h14.62s3.66,1.49,0,4.47h-6.7v3h6.7s3.66,2.23,0,5.21h-6.7v3h6.7s3,1.49,0,5.21H815.74s-3-2.23,0-5.21H817v-3h-1.22s-2.44-2.23,0-5.21H817v-3h-1.22S813.3,508.53,815.74,506.29Z" transform="translate(-287.5 -49.5)"/><line class="cls-43" x1="600.14" y1="451.57" x2="600.14" y2="461.26"/><line class="cls-43" x1="600.14" y1="494.06" x2="600.74" y2="548.48"/><line class="cls-43" x1="584.29" y1="497.79" x2="584.29" y2="503.75"/><line class="cls-43" x1="584.29" y1="521.64" x2="584.29" y2="544.01"/><line class="cls-44" x1="634.86" y1="576.81" x2="583.08" y2="576.81"/><polygon points="466.5 249.86 466.5 241.42 690.62 307.06 870.67 247.04 870.67 256.42 689.68 315.5 466.5 249.86"/><path class="cls-45" d="M823,645s-36.32,4-44-11-2,7-2,7-3.23,15-12,1,2.15-340,2.15-340L823,317" transform="translate(-287.5 -49.5)"/><polygon class="cls-17" points="258.76 506.49 401.44 460.58 493.5 486.16 349.69 533.58 258.76 506.49"/><polygon class="cls-18" points="258.5 506.43 258.5 521.21 349.82 548.17 493.32 501.21 493.32 486.42 349.82 533.38 258.5 506.43"/><polygon class="cls-19" points="299.55 503.55 392.58 473.61 452.6 490.29 358.84 521.21 299.55 503.55"/><polygon class="cls-16" points="299.38 503.82 319.1 509.37 392.43 485.55 392.43 473.38 299.38 503.82"/><polygon class="cls-20" points="432.48 496.93 452.44 489.9 392.43 473.38 392.43 485.55 432.48 496.93"/><path class="cls-46" d="M626.88,535.05l3.48.87V488.09s9.57-21.74,19.13,0h2.61s-11.3-28.7-24.35,0Z" transform="translate(-287.5 -49.5)"/></g></svg>