<svg id="Calque_2" data-name="Calque 2" xmlns="http://www.w3.org/2000/svg" viewBox="0 0 112.67 141.4"><defs><style>.cls-1{fill:#383838;}.cls-2{fill:#515151;}.cls-3{fill:#1e1e1e;}.cls-11,.cls-12,.cls-14,.cls-15,.cls-16,.cls-4,.cls-5,.cls-6{fill:none;}.cls-4{stroke:#828281;}.cls-12,.cls-16,.cls-4,.cls-5,.cls-6{stroke-linecap:round;}.cls-11,.cls-15,.cls-4,.cls-6{stroke-miterlimit:10;}.cls-12,.cls-4,.cls-5,.cls-6{stroke-width:3px;}.cls-5{stroke:#727272;}.cls-12,.cls-14,.cls-16,.cls-5{stroke-linejoin:round;}.cls-14,.cls-15,.cls-6{stroke:#1e1e1e;}.cls-7{fill:#0b0c0c;}.cls-8{fill:#828281;}.cls-9{fill:#c7c6c4;}.cls-10{fill:#303031;}.cls-11{stroke:#bcbbb8;stroke-width:2px;}.cls-12{stroke:#c7c6c4;}.cls-13{fill:#f39300;}.cls-16{stroke:#191810;}</style></defs><path class="cls-1" d="M47.41,193.77s-2.17,0-2.27,1.53,0,14.21,0,14.21-.37,1.48,1.67,1.57,107.05-.37,107.05-.37,1.75.67,1.61-1.88,0-13.59,0-13.59.28-1.47-2.64-1.47Z" transform="translate(-44.04 -69.69)"/><polygon class="cls-2" points="3.37 78.01 3.37 124.08 108.8 124.08 108.8 78.01 101.9 78.01 93.87 62.95 92.17 62.99 85.38 74.75 78.74 63.03 77.19 63.07 69.01 77.77 65.28 77.71 3.37 78.01"/><path class="cls-3" d="M54.13,119h92.62l9.79,26.49s.81,2.21-1,2.21H146l-8-15.06-1.7,0-6.79,11.76-6.64-11.72-1.55,0-8.18,14.7-3.73-.05-64,.29s-2.1.24-.94-3.28,8.3-24.31,8.3-24.31S52.8,119.26,54.13,119Z" transform="translate(-44.04 -69.69)"/><line class="cls-4" x1="105.48" y1="111.71" x2="105.48" y2="124.08"/><polygon class="cls-2" points="36.73 56.53 37.1 31.12 48.08 21.17 58.21 30.33 60.63 33.18 60.63 63.33 36.19 62.84 36.73 56.53"/><polygon class="cls-2" points="32.37 66.61 32.37 124.08 64.82 124.08 64.82 65.14 48.89 40.53 32.37 66.61"/><polyline class="cls-5" points="31.58 64.7 48.34 43.37 66.19 65.14"/><polyline class="cls-4" points="34.78 98.65 48.89 86.72 62.34 98.65"/><line class="cls-4" x1="38.3" y1="97.04" x2="38.3" y2="103.88"/><line class="cls-4" x1="59.26" y1="97.04" x2="59.26" y2="103.88"/><line class="cls-4" x1="38.3" y1="107.2" x2="38.3" y2="108.4"/><line class="cls-4" x1="59.26" y1="107.2" x2="59.26" y2="108.4"/><line class="cls-4" x1="38.3" y1="111.09" x2="38.3" y2="124.08"/><line class="cls-4" x1="59.26" y1="111.09" x2="59.26" y2="124.08"/><line class="cls-4" x1="65.38" y1="107.8" x2="108.8" y2="107.8"/><line class="cls-4" x1="66.19" y1="111.71" x2="66.19" y2="124.08"/><line class="cls-4" x1="74.28" y1="111.4" x2="74.28" y2="123.76"/><line class="cls-4" x1="89.81" y1="111.71" x2="89.81" y2="124.08"/><line class="cls-4" x1="97.65" y1="111.71" x2="97.65" y2="124.08"/><line class="cls-4" x1="84.89" y1="112.41" x2="79.2" y2="123.38"/><path class="cls-3" d="M78.26,102.16l8.07.73,6.34-7.75s-.06-2.49,1.17-.56,5.92,8.31,5.92,8.31l8.39,1.16L105,97.57,100.38,74.9V70.43s-1.26-1.66-1.7,0l0,4.4-11.82,0,0-3.87A1,1,0,0,0,85,71l0,4.38L80.89,98Z" transform="translate(-44.04 -69.69)"/><polyline class="cls-5" points="33.61 34.06 42.38 34.06 48.63 25.44 55.17 34.35 63.08 34.35"/><polygon class="cls-2" points="77.87 49.31 77.87 40.53 79.38 38.43 79.38 34.71 86.43 34.71 86.43 38.67 88.09 40.53 88.09 49.31 77.87 49.31"/><line class="cls-6" x1="78.42" y1="33.12" x2="87.54" y2="33.12"/><path class="cls-7" d="M89,166.73h7.73a.64.64,0,0,0,.38-1.15l-3.86-2.91a.65.65,0,0,0-.77,0l-3.86,2.91A.64.64,0,0,0,89,166.73Z" transform="translate(-44.04 -69.69)"/><path class="cls-7" d="M47.53,100.46h2.05a5.66,5.66,0,0,1,5.66,5.66v17.65a0,0,0,0,1,0,0H41.88a0,0,0,0,1,0,0V106.12A5.66,5.66,0,0,1,47.53,100.46Z"/><rect class="cls-8" x="30.63" y="124.08" width="35.95" height="4.24" rx="1.13"/><rect class="cls-9" x="28.35" y="128.31" width="40.84" height="4.24" rx="1.17"/><rect class="cls-8" x="26.09" y="132.55" width="45.37" height="4.24" rx="1.14"/><rect class="cls-9" x="23.63" y="136.78" width="49.93" height="4.24" rx="1.21"/><polygon class="cls-10" points="8.49 133.07 13.3 128.31 18.14 132.74 18.14 140.4 8.49 140.6 8.49 133.07"/><path class="cls-11" d="M53,210.09v-6.77s.88-4,4.48-4.85c0,0,4.09,1.09,4.31,4.53v7.09Z" transform="translate(-44.04 -69.69)"/><polygon class="cls-10" points="79.52 132.83 84.33 128.07 89.17 132.5 89.17 140.16 79.52 140.36 79.52 132.83"/><path class="cls-11" d="M124,209.85v-6.76s.88-4,4.48-4.86c0,0,4.09,1.09,4.31,4.53v7.09Z" transform="translate(-44.04 -69.69)"/><polygon class="cls-10" points="95.82 132.83 100.64 128.07 105.47 132.5 105.47 140.16 95.82 140.36 95.82 132.83"/><path class="cls-11" d="M140.29,209.85v-6.76s.87-4,4.47-4.86c0,0,4.09,1.09,4.31,4.53v7.09Z" transform="translate(-44.04 -69.69)"/><path class="cls-12" d="M56.82,141" transform="translate(-44.04 -69.69)"/><polygon class="cls-8" points="12.78 71.33 24.72 71.33 24.72 64.22 18.62 57.79 12.78 64.56 12.78 71.33"/><polyline class="cls-5" points="24.72 63.66 18.56 56.92 12.51 63.66"/><polyline class="cls-5" points="70.45 78.01 77.87 64.59 85.39 77.53 92.85 64.59 100.32 78.01"/><polygon class="cls-13" points="75 77.75 75 87.64 80.86 87.64 80.86 77.75 78.05 74.77 75 77.75"/><polygon class="cls-14" points="75.22 87.54 75.22 77.73 77.89 74.87 80.68 77.73 80.68 87.54 75.22 87.54"/><polyline class="cls-15" points="75.99 77.18 77.95 79.1 79.86 77.18"/><line class="cls-15" x1="77.95" y1="87.3" x2="77.95" y2="78.67"/><polygon class="cls-13" points="40.1 65.9 40.1 81.37 48.13 81.37 48.13 65.9 44.29 61.24 40.1 65.9"/><polygon class="cls-14" points="40.4 81.21 40.4 65.87 44.07 61.4 47.88 65.87 47.88 81.21 40.4 81.21"/><polyline class="cls-15" points="41.46 65.01 44.14 68.01 46.76 65.01"/><line class="cls-15" x1="44.14" y1="80.84" x2="44.14" y2="67.34"/><line class="cls-15" x1="47.52" y1="71.31" x2="40.64" y2="71.31"/><line class="cls-15" x1="47.28" y1="76.35" x2="40.4" y2="76.35"/><polygon class="cls-13" points="50.86 65.9 50.86 81.37 58.89 81.37 58.89 65.9 55.05 61.24 50.86 65.9"/><polygon class="cls-14" points="51.16 81.21 51.16 65.87 54.83 61.4 58.64 65.87 58.64 81.21 51.16 81.21"/><polyline class="cls-15" points="52.22 65.01 54.9 68.01 57.52 65.01"/><line class="cls-15" x1="54.9" y1="80.84" x2="54.9" y2="67.34"/><line class="cls-15" x1="58.28" y1="71.31" x2="51.4" y2="71.31"/><line class="cls-15" x1="58.04" y1="76.35" x2="51.16" y2="76.35"/><polygon class="cls-13" points="16.64 64.56 18.61 61.85 20.6 64.37 20.6 68.73 16.64 68.84 16.64 64.56"/><path class="cls-15" d="M60.85,138.42v-3.85s.36-2.27,1.84-2.76a2.91,2.91,0,0,1,1.77,2.57v4Z" transform="translate(-44.04 -69.69)"/><rect class="cls-13" x="14.29" y="87.07" width="8.84" height="14.42"/><line class="cls-15" x1="18.71" y1="87.07" x2="18.71" y2="101.49"/><line class="cls-15" x1="14.29" y1="91.83" x2="23.13" y2="91.83"/><line class="cls-15" x1="14.29" y1="96.6" x2="23.13" y2="96.6"/><rect class="cls-16" x="14.29" y="87.07" width="8.84" height="14.42"/><polygon class="cls-13" points="90.31 77.75 90.31 87.64 96.17 87.64 96.17 77.75 93.36 74.77 90.31 77.75"/><polygon class="cls-14" points="90.53 87.54 90.53 77.73 93.2 74.87 95.99 77.73 95.99 87.54 90.53 87.54"/><polyline class="cls-15" points="91.3 77.18 93.26 79.1 95.17 77.18"/><line class="cls-15" x1="93.26" y1="87.3" x2="93.26" y2="78.67"/></svg>