<svg id="Calque_1" data-name="Calque 1" xmlns="http://www.w3.org/2000/svg" viewBox="0 0 38.69 43.22"><defs><style>.cls-1{fill:#e5f2f9;}.cls-2{fill:#0a0e0c;}</style></defs><path class="cls-1" d="M19.31,0h0A13.93,13.93,0,0,1,33.24,13.93V38.29a0,0,0,0,1,0,0H5.39a0,0,0,0,1,0,0V13.93A13.93,13.93,0,0,1,19.31,0Z"/><path class="cls-1" d="M79.9,216.2s-.18,4.79,2.92,4.92,3.24-2.05,3.24-2.05a2.78,2.78,0,0,1,2.72-1.49c2.13,0,2.39,1.41,2.39,1.41a2.56,2.56,0,0,0,2.65,1.91,2.88,2.88,0,0,0,2.92-2,3.05,3.05,0,0,1,2.56-1.36c1.66.09,2.21.7,2.38,1.12a3.71,3.71,0,0,0,3.15,2.46c2.13.08,2.92-2.46,2.92-2.46v-2.92Z" transform="translate(-74.51 -177.91)"/><path class="cls-1" d="M107.26,196.53l1.65-1.6s2.22-.86,3.37.51a4.34,4.34,0,0,1,.91,3.08l-7.7,8Z" transform="translate(-74.51 -177.91)"/><path class="cls-1" d="M79.9,195.68l-2-1s-3.94-.49-3.33,4.4l7.61,7.44-.41-10.83Z" transform="translate(-74.51 -177.91)"/><path class="cls-2" d="M96.62,193.31a2.41,2.41,0,0,1-4.81,0" transform="translate(-74.51 -177.91)"/><circle class="cls-2" cx="16.37" cy="12.66" r="1.12"/><circle class="cls-2" cx="22.64" cy="12.66" r="1.12"/></svg>