<svg id="Calque_1" data-name="Calque 1" xmlns="http://www.w3.org/2000/svg" viewBox="0 0 248.32 262.25"><defs><style>.cls-1{fill:#fff;}.cls-2{fill:#785523;}</style></defs><path class="cls-1" d="M330.17,410.1l-32.56,43v-.85a36.78,36.78,0,0,1,17,4,6.52,6.52,0,0,1,2.89,3.65,7,7,0,0,1-.77,4.59,7.44,7.44,0,0,1-3.14,3.4,5.94,5.94,0,0,1-4.68,0,57.67,57.67,0,0,1-13-11.39,161.36,161.36,0,0,0-12.24-11.73,20.91,20.91,0,0,0-14.62-6.12,14.88,14.88,0,0,0-10.8,10.46c-1.53,5.18,3.83,9.09,8.5,11.56s10.29,4.67,15.56,6.88a47.89,47.89,0,0,1,15.13,8.5,9.62,9.62,0,0,1,3.06,8.5,17.61,17.61,0,0,1-4.51,8,11.28,11.28,0,0,1-8.5,4.17,15.26,15.26,0,0,1-8.5-3.91,86,86,0,0,1-11.47-13,83.73,83.73,0,0,0-11-12.66,12.42,12.42,0,0,0-6.55-3.32,8.48,8.48,0,0,0-6.21,3c-3.65,3.82-5.78,9.26-1.7,12.75a45.5,45.5,0,0,0,14,8.5c5.19,2.21,10.63,4.16,15.81,6.88a29.58,29.58,0,0,1,7.48,5.36,10.36,10.36,0,0,1,2.89,9.61,19.07,19.07,0,0,1-4.76,8.5,11.43,11.43,0,0,1-9.18,4.08,15.63,15.63,0,0,1-8.5-4.25,49.84,49.84,0,0,1-6.12-6.46L243,498.42c-3.49-4.17-7.66-8.5-12-9s-8.5,5.1-9.52,9.35,3.31,8,8.5,10.54,10.2,4.59,15.39,7.14a27.33,27.33,0,0,1,14,11.14,11.31,11.31,0,0,1,0,9.52,42.07,42.07,0,0,1-5.1,7.39,18.17,18.17,0,0,1-7.39,5.36,13.65,13.65,0,0,1-9.18,0c-5.7-1.53-10.63-6-15.48-5.19-2.29.51-3.82,3-5.61,5.19l-5.27,6.71L190,583.26h0l20.32-27.55,5.1-6.88c1.7-2,3.23-5.1,6.71-6a13.62,13.62,0,0,1,8.5,1.7,64,64,0,0,0,7.74,3.15,12.58,12.58,0,0,0,13.69-5c3.31-4.08,7-9.26,4.67-13.6a24.82,24.82,0,0,0-12.58-9.26c-5.1-2.3-10.46-4.26-15.73-6.89a26.27,26.27,0,0,1-7.48-5.27,10.28,10.28,0,0,1-2.8-9.78,20.49,20.49,0,0,1,4.76-8.5A12.54,12.54,0,0,1,232,485a16.12,16.12,0,0,1,8.51,4.08,62.32,62.32,0,0,1,6.12,6.46L257.23,509c3.49,4.08,7.57,8.5,11.9,9.18s8.5-4.85,9.61-9.1-3.57-8.07-8.5-10.54-10.2-4.67-15.47-7a48.47,48.47,0,0,1-15.22-9.09,10.22,10.22,0,0,1-2.81-9.35,18.46,18.46,0,0,1,4.77-8.5,11.12,11.12,0,0,1,8.5-3.91,15.57,15.57,0,0,1,8.5,4.16A90.49,90.49,0,0,1,269.81,478a93.12,93.12,0,0,0,11,12.66,12.61,12.61,0,0,0,6.71,3.32,8.47,8.47,0,0,0,6.29-3.23,14,14,0,0,0,3.91-6.63,7,7,0,0,0-2.29-6.55,45.3,45.3,0,0,0-14.2-8.5c-5.27-2.29-10.62-4.33-15.72-7.14a26.23,26.23,0,0,1-7.14-5.27,9.34,9.34,0,0,1-2.38-8.5,17,17,0,0,1,12.66-12,22.43,22.43,0,0,1,16,6.8,138.18,138.18,0,0,1,12.33,12,56.87,56.87,0,0,0,11.81,11.22,4.36,4.36,0,0,0,3.49.43c1.19,0,1.78-1.62,2.55-2.81a5.3,5.3,0,0,0,.68-3.57,5.21,5.21,0,0,0-2.3-3,35.25,35.25,0,0,0-16.06-4h-.94l.51-.76L329.83,410Z" transform="translate(-189.99 -321)"/><rect class="cls-2" x="300.3" y="283.37" width="54.4" height="259.18" rx="21.25" transform="translate(-389.48 100.21) rotate(-52.48)"/></svg>